<?xml version="1.0" encoding="UTF-8"?>
<!DOCTYPE svg PUBLIC "-//W3C//DTD SVG 1.1//EN" "http://www.w3.org/Graphics/SVG/1.1/DTD/svg11.dtd"><svg version="1.1" viewBox="0 0 21590 27940" preserveAspectRatio="xMidYMid" fill-rule="evenodd" xmlns="http://www.w3.org/2000/svg" xmlns:xlink="http://www.w3.org/1999/xlink"><g visibility="visible" id="Default"><desc>Master slide</desc><g style="stroke:none;fill:none"><rect x="986" y="986" width="19620" height="25970"/></g></g><g visibility="visible" id="page1"><desc>Slide</desc><g><desc>Graphic</desc><g><g style="stroke:none;fill:rgb(255,245,238)"><path d="M 8917,21186 C 9775,19884 10425,18596 10192,17208 11309,17081 11187,15570 11111,15230 11578,15121 12295,15398 13021,15212 13148,15180 13249,15139 13371,15090 14657,14668 15942,14518 15282,13030 15272,13021 15272,13021 15272,13003 16211,12862 17009,12349 17903,12090 18426,12059 18878,11732 19142,11328 19142,11328 19132,11319 19132,11319 19579,11033 19863,10521 19807,10031 20051,9723 19985,9115 19772,8670 19751,8634 19726,8620 19726,8575 19706,8044 19381,7595 19076,7391 18573,6266 17263,5645 16100,5155 15810,4973 15343,4683 14835,4592 14358,4497 13772,4506 13214,4434 12640,4343 12284,4307 11756,4434 11756,4456 11726,4474 11700,4483 11680,4474 11644,4456 11604,4456 10761,4456 10761,4456 10761,4456 10314,4642 9755,4424 9288,4642 8694,4307 8247,4783 7784,4933 7551,5014 7246,4987 7023,5046 6576,5182 6017,5572 5570,5763 4798,5785 4116,6366 3857,7001 3141,7405 2593,8130 2512,8870 1933,9142 1572,9673 1673,10262 1003,10843 1059,11709 1394,12412 1450,12499 1450,12499 1450,12499 1414,13661 2547,13810 3187,13751 2344,14822 5103,16310 5245,16351 5997,16840 7150,16568 7896,16187 7998,18056 7866,19467 7571,21186 Z"/></g><g style="stroke:rgb(255,102,0);fill:rgb(255,102,0)"><path d="M 8983,21218 L 8983,21218 9577,20238 10024,19249 10182,18755 10283,18238 10314,17720 10268,17208 10212,17276 10593,17167 10872,16940 11055,16650 11162,16319 11233,15670 11213,15407 11177,15221 11111,15298 11502,15271 11492,15271 11959,15312 12482,15357 13036,15280 13392,15158 13392,15158 14322,14867 14738,14709 15104,14518 15363,14269 15510,13933 15510,13520 15343,13012 15338,12989 15287,13071 15968,12903 16628,12657 17273,12390 17263,12390 17923,12158 17913,12158 18294,12081 18654,11909 18964,11659 19233,11328 19177,11278 19177,11369 19482,11120 19726,10788 19858,10412 19883,10040 19873,10063 20005,9763 20031,9400 19970,9019 19838,8652 19792,8552 19792,8570 19726,8180 19579,7836 19365,7545 19122,7346 19142,7364 18908,6956 18619,6593 17877,5985 17009,5495 16125,5096 16135,5105 15886,4955 15576,4783 15226,4633 14845,4533 14052,4447 13214,4366 13224,4375 12823,4316 12472,4283 12117,4307 11716,4375 11644,4443 11716,4424 11614,4393 11324,4393 11111,4393 10964,4393 10862,4393 10771,4393 10751,4393 10390,4474 10395,4465 10024,4474 9633,4483 9262,4583 9318,4583 9095,4493 8861,4456 8465,4547 8089,4715 7749,4874 7764,4874 7383,4937 7383,4937 6992,4987 6632,5132 6251,5332 5875,5536 5885,5527 5534,5704 5560,5704 5265,5735 4976,5822 4462,6103 4061,6511 3781,6974 3812,6951 3299,7314 2882,7781 2583,8303 2435,8861 2461,8820 2065,9074 1765,9423 1607,9822 1597,10262 1607,10221 1394,10462 1227,10720 1125,11002 1069,11292 1125,11882 1318,12449 1374,12530 1394,12548 1374,12508 1414,12903 1541,13230 1755,13470 2024,13652 2313,13751 2628,13810 3177,13819 3116,13729 2994,13942 2948,14169 2974,14400 3060,14641 3365,15071 3791,15489 4259,15852 4695,16137 5032,16328 5154,16391 5209,16419 5209,16410 5504,16568 5849,16650 6210,16691 6586,16659 7292,16509 7922,16251 7820,16196 7856,17525 7856,17516 7810,18746 7810,18746 7693,19939 7693,19934 7495,21177 7495,21177 C 7485,21218 7515,21254 7551,21254 7597,21258 7637,21236 7637,21204 L 7637,21204 7830,19948 7962,18755 8008,17516 7962,16087 7236,16387 7251,16387 6555,16537 6565,16527 6210,16550 6220,16559 5870,16527 5885,16527 5560,16441 5570,16441 5270,16296 5214,16269 5225,16278 5113,16219 5113,16219 4778,16029 4778,16029 4340,15747 4350,15747 3893,15389 3893,15398 3477,14990 3487,14999 3187,14572 3197,14591 3116,14368 3121,14382 3106,14169 3096,14182 3131,13978 3131,13992 3309,13692 2638,13679 2649,13688 2354,13629 2369,13629 2090,13529 2100,13538 1851,13370 1866,13389 1673,13162 1684,13180 1552,12871 1562,12890 1516,12471 1486,12449 1506,12462 1460,12390 1460,12399 1262,11850 1272,11868 1227,11292 1216,11310 1262,11029 1262,11033 1364,10770 1364,10779 1526,10530 1516,10544 1740,10289 1755,9840 1745,9854 1907,9473 1897,9491 2176,9160 2156,9174 2572,8911 2725,8334 2725,8353 3014,7845 3004,7854 3410,7396 3400,7414 3913,7051 4193,6575 4182,6593 4574,6203 4553,6212 5052,5935 5032,5944 5301,5862 5291,5862 5590,5826 5961,5645 6332,5436 6332,5436 6703,5245 6698,5255 7048,5114 7033,5114 7414,5064 7805,4996 8155,4837 8516,4674 8501,4674 8881,4592 8851,4592 9059,4615 9039,4615 9283,4715 9674,4615 9653,4615 10034,4606 10415,4597 10771,4524 10761,4524 10771,4524 10862,4524 10964,4524 11111,4524 11324,4524 11604,4524 11578,4524 11716,4565 11802,4483 11766,4497 12137,4434 12127,4434 12472,4415 12462,4415 12807,4443 12797,4443 13199,4497 14042,4574 14042,4574 14825,4656 14804,4656 15180,4756 15170,4756 15510,4905 15505,4896 15800,5064 15800,5064 16054,5214 16943,5622 16938,5613 17791,6094 17781,6085 18507,6683 18497,6674 18786,7033 18776,7024 19010,7432 19254,7640 19243,7631 19447,7904 19436,7885 19584,8221 19584,8212 19650,8602 19695,8702 19695,8693 19828,9051 19828,9042 19883,9414 19883,9400 19863,9750 19863,9723 19736,10022 19716,10394 19716,10380 19584,10739 19594,10720 19365,11033 19370,11029 19020,11319 19086,11378 19076,11292 18842,11573 18852,11569 18563,11809 18583,11791 18238,11959 18258,11959 17877,12031 17207,12263 16562,12530 16562,12530 15912,12780 15922,12780 15170,12962 15206,13053 15206,13053 15363,13552 15363,13529 15363,13919 15363,13901 15236,14210 15251,14182 15003,14418 15013,14409 14667,14591 14678,14582 14265,14740 14275,14740 13346,15031 12990,15158 13000,15158 12462,15221 12482,15212 11969,15180 11969,15180 11502,15139 11020,15171 11065,15421 11065,15412 11086,15670 11086,15661 11020,16301 11020,16287 10918,16600 10928,16586 10751,16859 10761,16840 10502,17049 10527,17040 10111,17167 10166,17730 10166,17720 10136,18228 10136,18219 10045,18727 10045,18718 9887,19208 9887,19199 9440,20179 9440,20179 8846,21163 8846,21163 C 8826,21195 8846,21227 8881,21254 8917,21268 8958,21254 8983,21218 Z"/><path d="M 15673,6343 L 15673,6343 15734,6425 15841,6493 15841,6493 C 15876,6516 15922,6511 15942,6475 15968,6443 15957,6402 15922,6384 L 15922,6384 15830,6325 15846,6343 15790,6266 15790,6266 C 15775,6234 15729,6225 15688,6252 15653,6266 15643,6311 15673,6343 Z"/><path d="M 19411,11033 L 19411,11033 19147,11219 19157,11210 18878,11342 18598,11492 18360,11709 18360,11709 C 18329,11732 18329,11773 18360,11800 18385,11823 18431,11823 18461,11800 L 18461,11800 18695,11591 18685,11600 18954,11460 18944,11469 19233,11328 19492,11142 19492,11142 C 19528,11120 19538,11079 19513,11052 19482,11020 19436,11011 19411,11033 Z"/><path d="M 18832,12358 L 18832,12358 18385,12489 17938,12621 17938,12621 C 17903,12630 17882,12671 17892,12703 17903,12739 17948,12753 17989,12748 L 17989,12748 18431,12612 18878,12480 18878,12480 C 18918,12471 18944,12430 18923,12399 18918,12362 18868,12340 18832,12358 Z"/><path d="M 17532,13139 L 17532,13139 17217,13098 16907,13153 16592,13230 16602,13230 16313,13289 16313,13289 C 16267,13293 16247,13330 16257,13361 16267,13402 16303,13420 16338,13411 L 16338,13411 16628,13352 16943,13280 16938,13280 17232,13230 17217,13230 17512,13262 17512,13262 C 17547,13271 17588,13248 17588,13203 17598,13171 17567,13139 17532,13139 Z"/><path d="M 15038,14101 L 15038,14101 14657,13779 14657,13779 14297,13438 14297,13438 C 14265,13411 14219,13411 14189,13438 14164,13461 14164,13502 14189,13529 L 14189,13529 14556,13869 14937,14191 14937,14191 C 14962,14219 15013,14219 15038,14191 15069,14169 15069,14128 15038,14101 Z"/><path d="M 14230,13470 L 14230,13470 14525,13520 14825,13488 15353,13311 15846,13062 15846,13071 16359,12881 16359,12881 C 16394,12862 16414,12821 16394,12789 16379,12753 16338,12739 16293,12753 L 16293,12753 15785,12949 15287,13189 15297,13189 14789,13361 14804,13352 14525,13380 14545,13389 14255,13343 14255,13343 C 14209,13339 14174,13361 14174,13393 14164,13438 14189,13470 14230,13470 Z"/><path d="M 14285,13429 L 14285,13429 13838,13171 13849,13180 13458,12852 13066,12521 12655,12231 12655,12231 C 12620,12208 12574,12213 12543,12240 12528,12272 12528,12313 12564,12340 L 12564,12340 12975,12630 12965,12621 13356,12949 13752,13280 14199,13538 14199,13538 C 14240,13561 14285,13552 14302,13520 14332,13488 14322,13443 14285,13429 Z"/><path d="M 12640,12349 L 12640,12349 12955,12208 13168,11972 13315,11691 13417,11392 13524,11083 13524,11092 13651,10820 13640,10829 13849,10593 13818,10612 14118,10462 14098,10471 14285,10439 14265,10439 14520,10444 14500,10444 14759,10539 14723,10512 14926,10743 14926,10743 C 14957,10779 15003,10779 15028,10761 15069,10739 15074,10693 15048,10671 L 15048,10671 14825,10421 14535,10321 14265,10303 14062,10344 13737,10503 13524,10752 13381,11042 13280,11351 13280,11351 13178,11650 13178,11641 13036,11909 13046,11891 12843,12108 12868,12090 12574,12222 12574,12222 C 12538,12240 12518,12281 12538,12313 12554,12349 12599,12362 12640,12349 Z"/><path d="M 14937,10643 L 14937,10643 14733,10811 14576,11029 14352,11473 14352,11473 14108,11918 14118,11900 13950,12081 13960,12072 13747,12231 13747,12231 C 13717,12258 13717,12299 13737,12331 13762,12358 13808,12358 13849,12340 L 13849,12340 14062,12172 14240,11981 14490,11532 14713,11083 14703,11092 14850,10893 14845,10902 15038,10739 15038,10739 C 15069,10711 15069,10671 15038,10643 15013,10621 14962,10621 14937,10643 Z"/><path d="M 15013,10802 L 15013,10802 15262,10729 15226,10729 15475,10761 15455,10761 15678,10861 15663,10843 15830,11002 15830,11002 C 15856,11029 15902,11029 15932,11002 15957,10979 15957,10934 15932,10911 L 15932,10911 15754,10743 15510,10639 15236,10593 14962,10680 14962,10680 C 14926,10689 14906,10729 14916,10761 14926,10793 14972,10811 15013,10802 Z"/><path d="M 15810,10952 L 15810,11083 15810,11083 C 15810,11129 15841,11151 15886,11151 15922,11151 15957,11129 15957,11083 L 15957,10952 15957,10952 C 15957,10920 15922,10884 15886,10884 15841,10884 15810,10920 15810,10952 Z"/><path d="M 15846,11033 L 15846,11033 15957,11079 15957,11079 16079,11129 16536,11111 16506,11111 16882,11219 16861,11210 17186,11410 17176,11401 17466,11668 17466,11668 C 17491,11691 17542,11691 17567,11668 17598,11641 17598,11600 17567,11573 L 17567,11573 17278,11301 16938,11092 16547,10979 16089,10984 16125,10993 16023,10952 15912,10911 15912,10911 C 15876,10893 15830,10911 15810,10943 15790,10979 15810,11020 15846,11033 Z"/><path d="M 17446,11619 L 17446,11619 17446,11768 17446,11882 17446,11882 C 17446,11922 17476,11950 17522,11950 17557,11950 17598,11922 17598,11882 L 17598,11882 17598,11768 17598,11619 17598,11619 C 17598,11582 17557,11551 17522,11551 17476,11551 17446,11582 17446,11619 Z"/><path d="M 17486,11823 L 17486,11823 17329,11891 17186,11959 17186,11959 C 17151,11972 17131,12018 17151,12049 17176,12081 17217,12099 17253,12081 L 17253,12081 17390,12018 17390,12018 17547,11950 17547,11950 C 17588,11932 17603,11891 17588,11859 17567,11823 17522,11809 17486,11823 Z"/><path d="M 17578,11922 L 17578,11922 17659,11823 17710,11741 17735,11632 17735,11632 C 17745,11600 17725,11569 17679,11560 17644,11551 17603,11569 17598,11609 L 17598,11609 17567,11709 17567,11691 17532,11759 17542,11750 17456,11850 17456,11850 C 17430,11873 17435,11918 17476,11941 17501,11968 17547,11959 17578,11922 Z"/><path d="M 17710,11673 L 17710,11673 17821,11600 17913,11482 18035,11251 18035,11251 C 18050,11219 18035,11179 17994,11160 17958,11142 17913,11160 17892,11192 L 17892,11192 17771,11428 17781,11419 17710,11519 17725,11501 17623,11569 17623,11569 C 17588,11591 17578,11632 17603,11659 17633,11691 17679,11700 17710,11673 Z"/><path d="M 12630,12222 L 12630,12222 12274,12140 12274,12140 11949,12031 11289,11823 11289,11823 C 11253,11809 11208,11832 11197,11868 11187,11900 11208,11941 11243,11950 L 11243,11950 11903,12158 11903,12158 12228,12263 12584,12349 12584,12349 C 12630,12358 12665,12340 12675,12308 12686,12263 12665,12231 12630,12222 Z"/><path d="M 11233,11868 L 11233,11868 11152,11659 11162,11673 11162,11473 11152,11492 11208,11301 11208,11310 11289,11111 11289,11120 11487,10729 11558,10512 11558,10289 11558,10289 C 11558,10253 11523,10221 11487,10221 11436,10221 11411,10253 11411,10289 L 11411,10289 11411,10494 11411,10480 11345,10689 11345,10680 11152,11061 11065,11269 11010,11469 11010,11691 11096,11909 11096,11909 C 11106,11941 11152,11959 11187,11950 11223,11941 11253,11900 11233,11868 Z"/><path d="M 11279,11823 L 11279,11823 10573,11700 10583,11700 10248,11591 10268,11600 9968,11433 9968,11433 C 9933,11410 9887,11419 9867,11451 9841,11482 9857,11523 9887,11541 L 9887,11541 10192,11718 10537,11823 11253,11950 11253,11950 C 11289,11959 11335,11932 11335,11900 11345,11868 11319,11823 11279,11823 Z"/><path d="M 10070,11541 L 10070,11541 10202,11451 10202,11451 10390,11333 10563,11183 10674,11029 10730,10829 10705,10630 10552,10240 10349,9822 10349,9831 10212,9400 10212,9410 10116,9001 9999,8675 9999,8675 C 9989,8643 9943,8620 9902,8634 9867,8643 9846,8684 9857,8720 L 9857,8720 9979,9042 9979,9033 10070,9432 10212,9872 10415,10289 10415,10280 10563,10661 10563,10643 10583,10829 10583,10811 10537,10984 10547,10961 10446,11101 10451,11092 10283,11233 10293,11228 10116,11342 9989,11433 9989,11433 C 9948,11460 9948,11501 9968,11523 9999,11560 10045,11560 10070,11541 Z"/><path d="M 10004,8693 L 10004,8430 10004,8430 C 10004,8393 9968,8362 9933,8362 9887,8362 9857,8393 9857,8430 L 9857,8693 9857,8693 C 9857,8734 9887,8761 9933,8761 9968,8761 10004,8734 10004,8693 Z"/><path d="M 9968,8643 L 9968,8643 9598,8412 9618,8430 9339,8103 9344,8112 9171,7740 9171,7754 9105,7355 9105,7355 C 9105,7323 9069,7296 9019,7305 8983,7305 8958,7341 8963,7382 L 8963,7382 9029,7790 9217,8180 9506,8511 9887,8752 9887,8752 C 9923,8774 9968,8770 9989,8734 10014,8702 10004,8661 9968,8643 Z"/><path d="M 9115,7364 L 9115,7364 9115,7246 9115,7101 9115,7101 C 9115,7064 9074,7033 9039,7033 8993,7033 8963,7064 8963,7101 L 8963,7101 8963,7246 8963,7364 8963,7364 C 8963,7405 8993,7432 9039,7432 9074,7432 9115,7405 9115,7364 Z"/><path d="M 9105,7341 L 9105,7341 8892,6965 8892,6983 8795,6552 8795,6575 8861,6153 8851,6175 9095,5812 9095,5812 C 9125,5776 9105,5735 9074,5722 9039,5695 8993,5713 8973,5735 L 8973,5735 8724,6116 8648,6565 8749,7015 8963,7396 8963,7396 C 8983,7432 9029,7445 9069,7432 9105,7414 9125,7373 9105,7341 Z"/><path d="M 4269,17131 L 4269,17131 5154,17226 6063,17226 6063,17226 C 6098,17226 6139,17199 6139,17158 6139,17126 6098,17090 6063,17090 L 6063,17090 5159,17090 5159,17099 4279,17008 4279,17008 C 4238,16999 4203,17026 4203,17067 4193,17099 4223,17131 4269,17131 Z"/><path d="M 3959,16999 L 3959,16999 4844,17108 5758,17117 5758,17117 C 5804,17126 5829,17090 5839,17058 5839,17017 5804,16990 5763,16981 L 5763,16981 4854,16977 4864,16981 3989,16877 3989,16877 C 3944,16868 3903,16890 3903,16927 3893,16967 3923,16999 3959,16999 Z"/><path d="M 5458,16700 L 5458,16700 6230,16718 6967,16600 6967,16600 C 7002,16600 7033,16559 7023,16527 7023,16491 6977,16469 6936,16478 L 6936,16478 6210,16591 6230,16586 5468,16568 5468,16568 C 5423,16568 5392,16600 5392,16636 5382,16677 5423,16700 5458,16700 Z"/><path d="M 8947,16128 L 8947,16128 8892,16360 8902,16328 8749,16487 8770,16478 8567,16609 8389,16750 8389,16750 C 8358,16777 8358,16827 8389,16850 8414,16877 8465,16877 8490,16850 L 8490,16850 8668,16709 8658,16718 8861,16577 9029,16400 9085,16151 9085,16151 C 9095,16119 9074,16087 9029,16078 8993,16069 8958,16087 8947,16128 Z"/><path d="M 8409,16741 L 8409,16741 7911,16977 7495,17280 7495,17280 C 7470,17308 7470,17348 7485,17380 7515,17407 7561,17407 7597,17389 L 7597,17389 8008,17081 7988,17090 8470,16868 8470,16868 C 8511,16850 8526,16809 8511,16777 8490,16741 8445,16727 8409,16741 Z"/><path d="M 4553,17299 L 4553,17299 5032,17358 5616,17407 6276,17389 6967,17267 6967,17267 C 7002,17258 7033,17226 7023,17190 7012,17158 6977,17131 6936,17140 L 6936,17140 6261,17267 6266,17258 5616,17276 5626,17276 5042,17226 5052,17231 4584,17176 4584,17176 C 4538,17167 4497,17190 4497,17226 4492,17267 4518,17299 4553,17299 Z"/><path d="M 4594,15679 L 4594,15679 4182,15570 3680,15457 3680,15457 3197,15312 3207,15312 2816,15149 2816,15149 C 2781,15130 2735,15149 2715,15180 2694,15212 2715,15257 2750,15271 L 2750,15271 3151,15439 3634,15579 4147,15697 4137,15697 4548,15802 4548,15802 C 4594,15811 4629,15797 4640,15761 4650,15720 4629,15688 4594,15679 Z"/><path d="M 5021,15938 L 4721,15938 4721,15938 C 4675,15938 4650,15970 4650,16001 4650,16047 4675,16069 4721,16069 L 5021,16069 5021,16069 C 5057,16069 5098,16047 5098,16001 5098,15970 5057,15938 5021,15938 Z"/><path d="M 5692,16341 L 5692,16341 5672,16387 5727,16351 5169,16459 5189,16450 4563,16437 4574,16441 3959,16337 3959,16337 3395,16210 3395,16210 C 3355,16201 3319,16219 3309,16260 3299,16296 3319,16328 3365,16337 L 3365,16337 3934,16459 4553,16568 5189,16586 5793,16469 5829,16391 5829,16391 C 5849,16360 5829,16328 5793,16310 5748,16296 5712,16310 5692,16341 Z"/><path d="M 3060,16069 L 3060,16069 3568,16201 4157,16328 4751,16410 5311,16428 5311,16428 C 5357,16437 5382,16400 5392,16369 5392,16328 5357,16301 5321,16296 L 5321,16296 4761,16278 4773,16287 4182,16201 4182,16201 3609,16078 3619,16078 3106,15947 3106,15947 C 3065,15938 3019,15951 3014,15988 3004,16019 3019,16060 3060,16069 Z"/><path d="M 2908,15938 L 2908,15938 3868,16196 4370,16287 4864,16337 4864,16337 C 4900,16341 4940,16319 4940,16278 4945,16246 4920,16210 4874,16210 L 4874,16210 4391,16160 4396,16160 3893,16069 3903,16069 2958,15811 2958,15811 C 2918,15802 2872,15820 2862,15852 2852,15888 2872,15929 2908,15938 Z"/><path d="M 2760,15670 L 2760,15670 3568,15897 4406,16069 4406,16069 C 4442,16078 4482,16060 4492,16019 4497,15988 4482,15951 4436,15947 L 4436,15947 3609,15770 3619,15770 2806,15548 2806,15548 C 2771,15539 2725,15557 2715,15589 2705,15620 2725,15661 2760,15670 Z"/><path d="M 2771,15539 L 2771,15539 3563,15688 4406,15802 4406,15802 C 4452,15811 4492,15788 4492,15752 4497,15711 4472,15679 4436,15679 L 4436,15679 3588,15561 3588,15561 2796,15412 2796,15412 C 2760,15407 2725,15421 2715,15462 2705,15498 2735,15530 2771,15539 Z"/><path d="M 2771,15139 L 2771,15139 3162,15208 3162,15208 3609,15307 3598,15307 4604,15579 5702,15820 6261,15902 6799,15938 6799,15938 C 6835,15947 6870,15911 6880,15879 6880,15847 6845,15811 6809,15802 L 6809,15802 6266,15770 6276,15779 5727,15697 5727,15697 4640,15457 4650,15457 3644,15180 3187,15080 2796,15017 2796,15017 C 2760,15008 2715,15031 2715,15067 2705,15099 2735,15139 2771,15139 Z"/><path d="M 9014,16078 L 9014,16078 8257,16301 8267,16301 7485,16400 7495,16391 6698,16410 6703,16410 5915,16378 5915,16378 C 5870,16378 5839,16410 5839,16441 5829,16487 5870,16509 5905,16509 L 5905,16509 6698,16541 7505,16527 8297,16428 9059,16201 9059,16201 C 9095,16196 9125,16151 9105,16119 9095,16087 9049,16060 9014,16078 Z"/><path d="M 5915,16337 L 5763,16337 5763,16337 C 5717,16337 5692,16369 5692,16400 5692,16441 5717,16469 5763,16469 L 5915,16469 5915,16469 C 5951,16469 5986,16441 5986,16400 5986,16369 5951,16337 5915,16337 Z"/><path d="M 5783,16341 L 5783,16341 5458,16246 5479,16251 5209,16087 5209,16087 C 5169,16060 5123,16069 5103,16101 5077,16137 5088,16178 5123,16196 L 5123,16196 5402,16369 5738,16469 5738,16469 C 5773,16478 5819,16459 5829,16428 5849,16391 5819,16351 5783,16341 Z"/><path d="M 5154,16201 L 5154,16201 5661,16269 5661,16269 5931,16310 6205,16319 6205,16319 C 6251,16328 6276,16296 6286,16260 6286,16219 6251,16196 6210,16187 L 6210,16187 5941,16178 5951,16187 5692,16146 5179,16078 5179,16078 C 5133,16069 5098,16097 5098,16128 5088,16169 5113,16201 5154,16201 Z"/><path d="M 5225,16097 L 5225,16097 5143,16019 5067,15951 5067,15951 C 5032,15938 4986,15938 4966,15960 4940,15997 4940,16038 4966,16051 L 4966,16051 5042,16110 5042,16110 5113,16187 5113,16187 C 5133,16210 5189,16210 5214,16187 5245,16169 5245,16119 5225,16097 Z"/><path d="M 5052,15947 L 5052,15947 4808,15838 4818,15847 4695,15779 4716,15788 4629,15697 4629,15697 C 4604,15670 4553,15661 4518,15688 4492,15711 4492,15752 4508,15788 L 4508,15788 4604,15888 4741,15951 4986,16069 4986,16069 C 5021,16087 5067,16069 5088,16038 5103,16001 5088,15960 5052,15947 Z"/><path d="M 4609,15811 L 4609,15811 4640,15797 4574,15802 5367,16001 6185,16119 7002,16169 7850,16169 7850,16169 C 7886,16169 7922,16146 7922,16101 7922,16069 7886,16038 7850,16038 L 7850,16038 7012,16038 7012,16038 6195,15988 6205,15997 5392,15879 5402,15879 4584,15670 4528,15706 4528,15706 C 4492,15720 4482,15761 4508,15797 4528,15829 4574,15838 4609,15811 Z"/><path d="M 5986,15489 L 5986,15489 5971,15520 6042,15480 5636,15462 5646,15471 5245,15398 5255,15398 4452,15158 3644,14917 3217,14849 2791,14849 2791,14849 C 2740,14849 2715,14881 2715,14917 2715,14958 2740,14981 2791,14981 L 2791,14981 3217,14981 3197,14981 3619,15040 3609,15040 4406,15280 5209,15520 5626,15598 6083,15620 6129,15548 6129,15548 C 6149,15511 6129,15471 6093,15457 6053,15439 6007,15457 5986,15489 Z"/><path d="M 9948,11428 L 9948,11428 9252,11242 9252,11242 8567,11011 8120,10861 8120,10861 7718,10720 7739,10729 7439,10539 7470,10562 7317,10262 7317,10262 C 7302,10231 7251,10212 7216,10231 7180,10249 7160,10289 7180,10321 L 7180,10321 7337,10639 7663,10843 8074,10984 8516,11133 9207,11369 9902,11551 9902,11551 C 9948,11560 9989,11541 9999,11510 10004,11469 9989,11433 9948,11428 Z"/><path d="M 7302,10339 L 7449,10203 7449,10203 C 7475,10181 7475,10140 7449,10113 7419,10090 7373,10090 7348,10113 L 7195,10249 7195,10249 C 7170,10271 7170,10312 7195,10339 7226,10362 7271,10362 7302,10339 Z"/><path d="M 7216,10231 L 7216,10231 7089,10294 6977,10394 6982,10389 6870,10462 6901,10453 6789,10480 6789,10480 C 6743,10489 6723,10521 6733,10553 6743,10593 6779,10612 6814,10602 L 6814,10602 6946,10580 7078,10494 7180,10394 7160,10412 7282,10353 7282,10353 C 7317,10330 7337,10294 7317,10262 7292,10231 7251,10212 7216,10231 Z"/><path d="M 10827,16337 L 10827,16337 9923,16251 9933,16260 9049,16078 9049,16078 C 9014,16069 8973,16087 8963,16128 8958,16160 8973,16196 9019,16201 L 9019,16201 9902,16387 10817,16469 10817,16469 C 10852,16478 10888,16450 10898,16410 10898,16378 10872,16341 10827,16337 Z"/><path d="M 9069,16078 L 9069,16078 8389,15838 7718,15679 7718,15679 C 7673,15670 7637,15688 7627,15720 7617,15761 7637,15797 7673,15802 L 7673,15802 8343,15960 8343,15960 9014,16201 9014,16201 C 9049,16219 9085,16201 9105,16160 9125,16128 9105,16097 9069,16078 Z"/><path d="M 7729,15679 L 7729,15679 7698,15670 7180,15548 7190,15548 6677,15362 6687,15371 6220,15108 6230,15112 5814,14768 5814,14768 C 5783,14740 5738,14740 5712,14768 5682,14790 5682,14831 5712,14858 L 5712,14858 6139,15212 6611,15489 7134,15670 7652,15797 7642,15797 7663,15802 7663,15802 C 7698,15820 7749,15802 7764,15770 7784,15738 7764,15697 7729,15679 Z"/><path d="M 5793,14967 L 5793,14967 5870,14931 5819,14931 5895,14949 5885,14949 5971,14972 6063,14972 6063,14972 C 6098,14972 6139,14949 6139,14908 6139,14872 6098,14840 6063,14840 L 6063,14840 5986,14840 6007,14849 5931,14822 5829,14799 5727,14840 5727,14840 C 5692,14858 5672,14899 5692,14931 5712,14967 5758,14981 5793,14967 Z"/><path d="M 5763,14740 L 5321,14740 5321,14740 C 5270,14740 5245,14772 5245,14808 5245,14849 5270,14872 5321,14872 L 5763,14872 5763,14872 C 5804,14872 5839,14849 5839,14808 5839,14772 5804,14740 5763,14740 Z"/><path d="M 7698,15647 L 7698,15647 6870,15629 6880,15638 6073,15548 6073,15548 C 6027,15539 5986,15561 5986,15598 5981,15638 6007,15670 6053,15670 L 6053,15670 6865,15761 7693,15779 7693,15779 C 7739,15788 7764,15752 7774,15720 7774,15679 7739,15657 7698,15647 Z"/><path d="M 6083,15548 L 6083,15548 5423,15321 5433,15321 4761,15080 4091,14872 3395,14749 3395,14749 C 3355,14740 3319,14768 3309,14799 3299,14831 3329,14867 3365,14872 L 3365,14872 4056,14999 4045,14999 4716,15208 4716,15208 5377,15448 6037,15670 6037,15670 C 6073,15688 6108,15661 6129,15629 6149,15598 6129,15561 6083,15548 Z"/><path d="M 3400,14872 L 3400,14872 4213,14622 4203,14622 5052,14468 5042,14468 5915,14382 5915,14382 6809,14377 6809,14377 C 6845,14377 6880,14350 6880,14309 6870,14278 6845,14241 6799,14241 L 6799,14241 5905,14250 5021,14341 4167,14500 3355,14749 3355,14749 C 3319,14758 3299,14799 3309,14831 3319,14867 3365,14881 3400,14872 Z"/><path d="M 6733,14300 L 6733,14300 6753,14359 7261,14459 7251,14459 7698,14609 7693,14609 8592,14958 9049,15108 9532,15198 10024,15221 10537,15121 10537,15121 C 10573,15112 10603,15080 10593,15049 10583,15017 10547,14990 10507,14999 L 10507,14999 10004,15090 10024,15080 9542,15067 9552,15071 9085,14981 9095,14981 8638,14831 8648,14831 7754,14482 7302,14332 6825,14241 6880,14282 6870,14259 6870,14259 C 6865,14228 6814,14201 6779,14219 6743,14228 6723,14269 6733,14300 Z"/><path d="M 10507,15031 L 10507,15031 10974,15090 10964,15090 11401,15248 11390,15248 11827,15421 12284,15539 12284,15539 C 12330,15548 12371,15530 12376,15498 12386,15457 12371,15421 12330,15412 L 12330,15412 11878,15298 11883,15298 11456,15121 11010,14967 10537,14908 10537,14908 C 10491,14899 10451,14922 10451,14958 10446,14999 10471,15031 10507,15031 Z"/><path d="M 10563,15130 L 10563,15130 11055,14817 11050,14822 11599,14609 11599,14609 C 11634,14591 11655,14550 11634,14518 11614,14482 11568,14468 11533,14482 L 11533,14482 10984,14699 10481,15022 10481,15022 C 10446,15049 10436,15090 10461,15112 10491,15149 10537,15158 10563,15130 Z"/><path d="M 6855,14328 L 6855,14328 6865,14318 6825,14332 7317,14250 7307,14250 7850,14210 7850,14210 C 7896,14210 7922,14178 7922,14142 7911,14101 7876,14078 7840,14078 L 7840,14078 7292,14128 6779,14210 6753,14232 6753,14232 C 6723,14259 6723,14300 6753,14328 6779,14350 6825,14350 6855,14328 Z"/><path d="M 3385,14740 L 2938,14740 2938,14740 C 2892,14740 2862,14772 2862,14808 2862,14849 2892,14872 2938,14872 L 3385,14872 3385,14872 C 3421,14872 3456,14849 3456,14808 3456,14772 3421,14740 3385,14740 Z"/><path d="M 1084,13652 L 1084,13652 1338,13933 1653,14191 2034,14350 2258,14382 2491,14359 2491,14359 C 2537,14359 2567,14328 2567,14291 2557,14250 2517,14228 2481,14228 L 2481,14228 2258,14241 2278,14250 2075,14228 2090,14228 1729,14078 1745,14092 1440,13842 1450,13851 1206,13579 1206,13579 C 1181,13543 1135,13538 1105,13561 1069,13588 1069,13629 1084,13652 Z"/><path d="M 2471,14341 L 2471,14341 2847,14427 3050,14441 3243,14409 3243,14409 C 3284,14409 3309,14377 3299,14332 3299,14300 3263,14278 3217,14282 L 3217,14282 3030,14309 3050,14300 2862,14291 2872,14300 2501,14219 2501,14219 C 2461,14210 2425,14228 2415,14269 2405,14300 2425,14332 2471,14341 Z"/><path d="M 2517,14219 L 2517,14219 2222,14083 1922,13951 1922,13951 C 1887,13933 1841,13951 1821,13983 1800,14019 1821,14060 1856,14078 L 1856,14078 2156,14210 2456,14341 2456,14341 C 2491,14359 2537,14341 2557,14309 2572,14278 2557,14232 2517,14219 Z"/><path d="M 1374,11351 L 1374,11351 1374,11410 1374,11482 1374,11482 C 1374,11523 1404,11551 1450,11551 1486,11551 1526,11523 1526,11482 L 1526,11482 1526,11410 1526,11351 1526,11351 C 1526,11319 1486,11283 1450,11283 1404,11283 1374,11319 1374,11351 Z"/><path d="M 2120,10022 L 2120,10153 2120,10153 C 2120,10199 2146,10221 2192,10221 2232,10221 2268,10199 2268,10153 L 2268,10022 2268,10022 C 2268,9990 2232,9954 2192,9954 2146,9954 2120,9990 2120,10022 Z"/><path d="M 4854,17566 L 4854,17566 4976,17589 5225,17616 5560,17621 5941,17616 6352,17571 6758,17489 7139,17330 7439,17126 7439,17126 C 7475,17099 7485,17058 7459,17031 7429,16999 7383,16990 7358,17017 L 7358,17017 7058,17226 7068,17217 6703,17367 6723,17367 6322,17448 6332,17448 5931,17489 5931,17480 5550,17489 5560,17489 5235,17480 5235,17489 4996,17466 5001,17466 4884,17439 4884,17439 C 4844,17430 4808,17448 4798,17489 4788,17525 4808,17557 4854,17566 Z"/><path d="M 3456,8053 L 3456,8053 3512,8194 3553,8280 3624,8344 3624,8344 C 3654,8371 3700,8371 3725,8344 3756,8321 3756,8280 3725,8253 L 3725,8253 3664,8194 3680,8221 3654,8153 3654,8153 3598,8012 3598,8012 C 3588,7981 3543,7953 3507,7972 3466,7981 3451,8022 3456,8053 Z"/><path d="M 5255,6801 L 4955,7200 4955,7200 C 4930,7232 4940,7273 4976,7291 5011,7314 5057,7305 5077,7273 L 5377,6874 5377,6874 C 5402,6842 5392,6801 5357,6783 5321,6756 5270,6765 5255,6801 Z"/><path d="M 5448,16591 L 5448,16591 5021,16659 5042,16650 4574,16636 4584,16641 4116,16568 4116,16568 3690,16478 3690,16478 C 3654,16469 3619,16487 3609,16527 3598,16559 3619,16591 3664,16600 L 3664,16600 4091,16691 4563,16768 5042,16791 5479,16718 5479,16718 C 5514,16718 5545,16677 5534,16641 5534,16609 5494,16586 5448,16591 Z"/><path d="M 17522,11682 L 17669,11682 17669,11682 C 17710,11682 17745,11659 17745,11619 17745,11582 17710,11551 17669,11551 L 17522,11551 17522,11551 C 17476,11551 17446,11582 17446,11619 17446,11659 17476,11682 17522,11682 Z"/><path d="M 13803,6234 L 13803,6234 13056,6166 12315,6103 12315,6103 C 12274,6103 12239,6125 12239,6166 12228,6203 12259,6234 12305,6234 L 12305,6234 13046,6302 13793,6366 13793,6366 C 13828,6375 13864,6352 13874,6311 13874,6275 13849,6243 13803,6234 Z"/><path d="M 18319,9192 L 18319,9192 18207,9051 18060,8924 18060,8924 17933,8802 17948,8824 17882,8675 17882,8675 C 17867,8634 17826,8620 17791,8634 17755,8652 17725,8684 17745,8720 L 17745,8720 17821,8883 17958,9019 18096,9142 18091,9133 18202,9264 18202,9264 C 18228,9301 18273,9310 18304,9283 18339,9260 18350,9214 18319,9192 Z"/><path d="M 17791,8761 L 17791,8761 18014,8833 18238,8892 18238,8892 C 18284,8901 18319,8883 18329,8852 18339,8811 18319,8774 18284,8770 L 18284,8770 18060,8711 18060,8711 17837,8634 17837,8634 C 17801,8620 17765,8643 17745,8675 17725,8711 17755,8743 17791,8761 Z"/><path d="M 17877,8661 L 17877,8661 17613,8280 17278,7953 16562,7405 16582,7441 16547,7346 16547,7346 C 16536,7314 16491,7291 16450,7305 16414,7314 16389,7355 16404,7391 L 16404,7391 16450,7495 17176,8053 17176,8044 17501,8362 17491,8353 17755,8734 17755,8734 C 17771,8761 17821,8774 17857,8752 17882,8734 17903,8693 17877,8661 Z"/><path d="M 16516,7532 L 16516,7532 16592,7491 16536,7495 16613,7513 16602,7513 16674,7541 16760,7554 16760,7554 C 16795,7563 16831,7545 16841,7504 16851,7473 16831,7441 16785,7432 L 16785,7432 16714,7414 16719,7414 16648,7391 16536,7364 16435,7423 16435,7423 C 16404,7441 16389,7482 16414,7513 16435,7541 16481,7554 16516,7532 Z"/><path d="M 16506,7305 L 16506,7305 15785,6965 15353,6801 14860,6674 14860,6674 14297,6484 14302,6493 13828,6252 13828,6252 C 13803,6225 13752,6243 13737,6275 13706,6302 13727,6343 13762,6361 L 13762,6361 14240,6606 14815,6801 15307,6924 15297,6924 15719,7092 15719,7092 16445,7432 16445,7432 C 16481,7445 16526,7432 16547,7396 16562,7364 16547,7323 16506,7305 Z"/><path d="M 13859,6266 L 13859,6266 13752,6153 13635,6053 13635,6062 13402,5862 13402,5862 C 13371,5835 13326,5835 13300,5862 13270,5885 13270,5926 13300,5953 L 13300,5953 13529,6153 13651,6252 13640,6234 13737,6343 13737,6343 C 13762,6375 13808,6384 13838,6361 13874,6334 13884,6293 13859,6266 Z"/><path d="M 11020,6915 L 11020,6915 10776,6742 10786,6751 10583,6525 10583,6525 C 10552,6502 10507,6493 10471,6516 10446,6543 10446,6584 10461,6615 L 10461,6615 10674,6842 10928,7024 10928,7024 C 10954,7042 10999,7042 11030,7005 11055,6983 11050,6942 11020,6915 Z"/><path d="M 12696,10122 L 12696,10122 12432,10430 12249,10770 12107,11129 12107,11120 11939,11460 11939,11460 C 11924,11492 11939,11532 11980,11551 12015,11569 12061,11551 12081,11519 L 12081,11519 12249,11169 12386,10820 12386,10829 12564,10494 12554,10503 12813,10199 12813,10199 C 12843,10172 12833,10131 12797,10104 12767,10081 12721,10090 12696,10122 Z"/><path d="M 14667,10040 L 14667,10040 14424,10122 14444,10113 14189,10122 14209,10131 13717,10040 13717,10040 13468,9990 13214,9963 12955,10004 12721,10113 12721,10113 C 12686,10140 12665,10172 12686,10203 12711,10240 12752,10253 12787,10240 L 12787,10240 13011,10131 12990,10131 13234,10099 13214,10099 13447,10113 13437,10113 13691,10162 14189,10262 14464,10249 14713,10162 14713,10162 C 14759,10149 14779,10113 14759,10081 14738,10040 14703,10022 14667,10040 Z"/><path d="M 12813,10122 L 12813,10122 12508,9772 12518,9781 12295,9400 12295,9414 12183,8992 12193,9010 12203,8570 12203,8570 C 12203,8525 12162,8502 12127,8493 12081,8493 12051,8525 12051,8561 L 12051,8561 12041,9010 12152,9450 12386,9850 12696,10199 12696,10199 C 12721,10231 12767,10231 12797,10212 12833,10190 12843,10149 12813,10122 Z"/><path d="M 12152,8634 L 12152,8634 12538,8670 12909,8570 13244,8403 13539,8221 13539,8221 C 13579,8203 13585,8162 13559,8130 13539,8094 13493,8085 13458,8112 L 13458,8112 13158,8294 13168,8285 12843,8443 12853,8443 12508,8534 12538,8525 12162,8502 12162,8502 C 12127,8502 12091,8525 12091,8570 12081,8602 12117,8634 12152,8634 Z"/><path d="M 12208,8520 L 12208,8520 11827,8162 11837,8171 11502,7790 11502,7790 11223,7382 11233,7396 11040,6951 11040,6951 C 11020,6906 10984,6892 10944,6906 10908,6924 10883,6956 10898,6992 L 10898,6992 11096,7445 11380,7863 11716,8253 12107,8611 12107,8611 C 12137,8634 12183,8634 12208,8611 12239,8584 12239,8543 12208,8520 Z"/><path d="M 11055,6992 L 11055,6992 11111,6856 11111,6702 11106,6706 11121,6575 11121,6602 11187,6466 11187,6466 C 11208,6434 11187,6393 11152,6375 11111,6361 11065,6375 11050,6411 L 11050,6411 10984,6552 10964,6702 10964,6842 10964,6824 10918,6951 10918,6951 C 10908,6983 10928,7024 10964,7033 10999,7042 11050,7024 11055,6992 Z"/><path d="M 6474,7441 L 6474,7441 5971,7631 5524,7931 5103,8244 5113,8244 4675,8511 4675,8511 C 4640,8525 4629,8570 4660,8602 4675,8634 4721,8643 4761,8620 L 4761,8620 5199,8353 5616,8035 5606,8035 6042,7745 6037,7754 6535,7563 6535,7563 C 6576,7545 6591,7504 6576,7473 6555,7441 6510,7423 6474,7441 Z"/><path d="M 7988,7314 L 7988,7314 7617,7323 7246,7373 7246,7364 6870,7396 6870,7396 6499,7405 6499,7405 C 6464,7414 6428,7441 6433,7482 6433,7513 6464,7545 6510,7541 L 6510,7541 6880,7532 7251,7495 7637,7455 7627,7455 7998,7445 7998,7445 C 8033,7445 8074,7423 8074,7382 8064,7346 8033,7314 7988,7314 Z"/><path d="M 6565,7545 L 6565,7545 6967,7114 6957,7123 7449,6756 7449,6756 C 7475,6733 7485,6692 7459,6656 7429,6634 7383,6624 7348,6652 L 7348,6652 6855,7024 6444,7455 6444,7455 C 6428,7491 6428,7532 6454,7554 6489,7572 6535,7572 6565,7545 Z"/><path d="M 3187,10104 L 3187,10104 2948,10280 2781,10489 2715,10729 2694,10984 2847,11482 3121,11918 3121,11918 C 3141,11950 3187,11968 3217,11941 3253,11922 3273,11882 3243,11859 L 3243,11859 2974,11433 2984,11442 2847,10961 2852,10984 2862,10743 2852,10752 2918,10530 2908,10553 3060,10362 3050,10380 3284,10212 3284,10212 C 3309,10190 3319,10149 3289,10113 3263,10090 3217,10081 3187,10104 Z"/><path d="M 3172,11850 L 3172,11850 2862,12222 2781,12449 2760,12680 2760,12680 C 2750,12712 2791,12748 2826,12748 2862,12753 2903,12721 2908,12689 L 2908,12689 2928,12462 2918,12480 3004,12272 2994,12290 3289,11922 3289,11922 C 3319,11900 3309,11859 3273,11832 3243,11809 3197,11818 3172,11850 Z"/><path d="M 3207,11950 L 3654,12081 3654,12081 C 3690,12090 3736,12072 3746,12040 3766,12009 3736,11968 3700,11959 L 3253,11823 3253,11823 C 3217,11809 3172,11832 3162,11868 3151,11900 3172,11941 3207,11950 Z"/><path d="M 3162,10190 L 3162,10190 3228,10321 3319,10453 3319,10453 C 3339,10489 3385,10503 3410,10480 3451,10462 3466,10421 3451,10394 L 3451,10394 3365,10262 3365,10262 3299,10131 3299,10131 C 3284,10099 3233,10081 3197,10099 3162,10113 3141,10153 3162,10190 Z"/><path d="M 5281,8371 L 5281,8371 5098,8462 5103,8462 4889,8520 4900,8520 4665,8561 4452,8643 4223,8852 4025,9133 3837,9441 3837,9432 3619,9691 3634,9673 3339,9872 3228,9990 3162,10140 3162,10140 C 3141,10172 3172,10203 3207,10221 3243,10240 3284,10212 3299,10181 L 3299,10181 3355,10049 3344,10072 3451,9963 3431,9972 3725,9772 3959,9509 4157,9201 4147,9210 4340,8933 4335,8942 4548,8743 4528,8761 4721,8684 4706,8684 4940,8643 5159,8584 5347,8484 5347,8484 C 5382,8471 5402,8430 5382,8403 5357,8371 5321,8353 5281,8371 Z"/><path d="M 12853,7055 L 12406,7455 12406,7455 C 12376,7482 12376,7523 12406,7545 12432,7572 12482,7572 12508,7545 L 12955,7151 12955,7151 C 12980,7123 12980,7083 12955,7055 12924,7033 12879,7033 12853,7055 Z"/><path d="M 13056,7033 L 12909,7033 12909,7033 C 12863,7033 12833,7064 12833,7101 12833,7142 12863,7164 12909,7164 L 13056,7164 13056,7164 C 13092,7164 13133,7142 13133,7101 13133,7064 13092,7033 13056,7033 Z"/><path d="M 12975,7073 L 12823,6806 12823,6806 C 12807,6774 12757,6756 12721,6774 12686,6792 12665,6833 12686,6865 L 12833,7132 12833,7132 C 12853,7164 12899,7182 12934,7164 12975,7151 12990,7105 12975,7073 Z"/><path d="M 16851,8824 L 16851,8960 16851,8960 C 16851,9001 16882,9024 16927,9024 16963,9024 16999,9001 16999,8960 L 16999,8824 16999,8824 C 16999,8793 16963,8761 16927,8761 16882,8761 16851,8793 16851,8824 Z"/><path d="M 17420,9051 L 17420,9051 17232,8874 16953,8770 16953,8770 C 16917,8752 16872,8770 16851,8802 16831,8833 16851,8874 16887,8892 L 16887,8892 17161,8992 17141,8974 17319,9142 17319,9142 C 17344,9165 17390,9165 17420,9142 17446,9115 17446,9074 17420,9051 Z"/><path d="M 16983,8793 L 16983,8793 16760,8443 16414,8171 16013,7904 15663,7663 15429,7591 15170,7545 14926,7513 14937,7513 14713,7441 14713,7441 C 14678,7423 14637,7445 14622,7482 14601,7513 14627,7545 14667,7563 L 14667,7563 14891,7640 15140,7672 15140,7672 15394,7713 15383,7713 15607,7790 15587,7781 15932,8012 15932,8012 16323,8280 16313,8271 16648,8534 16638,8525 16861,8870 16861,8870 C 16882,8892 16927,8911 16963,8883 16993,8870 17009,8824 16983,8793 Z"/><path d="M 16999,10022 L 16999,10153 16999,10153 C 16999,10199 17029,10221 17075,10221 17110,10221 17151,10199 17151,10153 L 17151,10022 17151,10022 C 17151,9990 17110,9954 17075,9954 17029,9954 16999,9990 16999,10022 Z"/><path d="M 17735,10811 L 17735,10811 17669,10553 17522,10330 17120,9981 17120,9981 C 17095,9954 17049,9954 17019,9981 16993,10004 16993,10049 17019,10072 L 17019,10072 17410,10412 17400,10394 17542,10612 17532,10593 17598,10838 17598,10838 C 17603,10879 17644,10893 17679,10884 17725,10879 17745,10843 17735,10811 Z"/><path d="M 17131,9990 L 17131,9990 16897,9682 16572,9423 16211,9264 16211,9264 15830,9101 15846,9110 15597,8920 15597,8924 15383,8734 15160,8552 14845,8412 14637,8371 14434,8353 14444,8362 14265,8330 14297,8334 14133,8244 14133,8244 C 14098,8221 14052,8230 14031,8262 14006,8294 14016,8334 14052,8353 L 14052,8353 14219,8452 14424,8484 14622,8493 14611,8493 14804,8534 14789,8534 15084,8670 15069,8652 15282,8824 15282,8824 15495,9019 15754,9214 16145,9391 16501,9541 16481,9523 16785,9772 16775,9763 17009,10063 17009,10063 C 17029,10099 17075,10104 17110,10081 17151,10063 17161,10022 17131,9990 Z"/><path d="M 7485,8784 L 7485,8784 7337,8951 7358,8942 7190,9042 7216,9033 6825,9124 6835,9124 6428,9165 6220,9214 6027,9301 6027,9301 C 5986,9314 5971,9360 5986,9391 6007,9423 6053,9441 6093,9423 L 6093,9423 6276,9341 6266,9341 6464,9292 6444,9292 6855,9251 7261,9160 7449,9042 7607,8870 7607,8870 C 7637,8843 7627,8802 7597,8774 7561,8752 7515,8761 7485,8784 Z"/><path d="M 6093,9301 L 6093,9301 5758,9174 5783,9192 5524,8920 5524,8920 C 5494,8892 5448,8883 5413,8911 5382,8933 5382,8974 5402,9010 L 5402,9010 5682,9292 6027,9423 6027,9423 C 6073,9441 6108,9423 6129,9391 6149,9351 6129,9314 6093,9301 Z"/><path d="M 5997,9323 L 5997,9323 5748,9623 5661,9990 5702,10362 5804,10711 5804,10711 C 5814,10743 5849,10761 5895,10752 5931,10743 5951,10711 5941,10671 L 5941,10671 5839,10330 5849,10344 5819,9990 5814,10004 5885,9664 5875,9691 6119,9400 6119,9400 C 6149,9373 6139,9332 6098,9310 6073,9283 6027,9292 5997,9323 Z"/><path d="M 5860,10639 L 5860,10639 5773,10711 5712,10779 5712,10779 C 5682,10811 5682,10852 5712,10870 5748,10893 5793,10893 5819,10870 L 5819,10870 5885,10802 5875,10802 5961,10739 5961,10739 C 5986,10720 5986,10671 5971,10643 5941,10621 5895,10621 5860,10639 Z"/><path d="M 5763,10752 L 5616,10752 5616,10752 C 5570,10752 5545,10788 5545,10820 5545,10861 5570,10884 5616,10884 L 5763,10884 5763,10884 C 5804,10884 5839,10861 5839,10820 5839,10788 5804,10752 5763,10752 Z"/><path d="M 5727,10879 L 5727,10879 5875,10961 6027,11020 6027,11020 C 6063,11033 6108,11020 6129,10984 6149,10952 6129,10911 6093,10893 L 6093,10893 5941,10838 5941,10838 5793,10761 5793,10761 C 5763,10743 5717,10761 5702,10793 5672,10820 5692,10861 5727,10879 Z"/><path d="M 6007,11002 L 6007,11002 6230,11192 6230,11192 6454,11401 6454,11401 C 6479,11428 6530,11428 6555,11401 6586,11378 6586,11333 6555,11310 L 6555,11310 6332,11101 6108,10911 6108,10911 C 6083,10884 6037,10884 6007,10911 5981,10934 5981,10979 6007,11002 Z"/><path d="M 9069,10099 L 9069,10099 8917,10040 8760,10013 8455,9963 8455,9963 C 8414,9954 8369,9981 8369,10013 8358,10049 8389,10090 8424,10090 L 8424,10090 8734,10140 8734,10140 8881,10162 8861,10162 9003,10221 9003,10221 C 9039,10240 9085,10221 9105,10190 9125,10153 9105,10113 9069,10099 Z"/><path d="M 9394,10512 L 9394,10512 9227,10330 9232,10344 9105,10131 9105,10131 C 9074,10099 9039,10081 9003,10099 8963,10122 8947,10153 8963,10190 L 8963,10190 9105,10412 9273,10602 9273,10602 C 9298,10630 9344,10630 9384,10612 9410,10589 9420,10544 9394,10512 Z"/><path d="M 9161,10181 L 9161,10181 9217,10004 9217,10004 9288,9822 9344,9623 9364,9410 9242,9101 9014,8861 8678,8702 8257,8652 8079,8693 7906,8743 7718,8802 7729,8802 7530,8824 7530,8824 C 7495,8824 7470,8861 7475,8901 7475,8933 7515,8960 7561,8951 L 7561,8951 7754,8924 7952,8870 7952,8870 8130,8820 8120,8820 8277,8784 8257,8784 8648,8824 8622,8820 8927,8970 8902,8960 9115,9183 9105,9160 9217,9441 9217,9414 9207,9609 9207,9591 9151,9781 9151,9781 9074,9963 9019,10140 9019,10140 C 9014,10181 9029,10212 9069,10221 9115,10231 9151,10212 9161,10181 Z"/><path d="M 7561,8770 L 7561,8770 7089,8693 7104,8693 6687,8502 6687,8502 C 6647,8484 6601,8502 6586,8534 6565,8570 6586,8611 6621,8625 L 6621,8625 7048,8820 7530,8892 7530,8892 C 7571,8901 7617,8874 7617,8843 7627,8811 7597,8770 7561,8770 Z"/><path d="M 5849,10729 L 5849,10729 5931,10852 5926,10843 5986,10984 5986,10984 C 6007,11020 6042,11033 6093,11020 6129,11002 6149,10970 6129,10929 L 6129,10929 6063,10788 5971,10652 5971,10652 C 5951,10630 5905,10612 5870,10639 5839,10652 5819,10693 5849,10729 Z"/><path d="M 4223,10911 L 4223,10911 4081,11052 4081,11042 3923,11169 3923,11169 C 3893,11192 3893,11233 3923,11269 3944,11292 4000,11292 4025,11269 L 4025,11269 4182,11142 4335,11002 4335,11002 C 4350,10970 4350,10929 4325,10902 4294,10884 4238,10884 4223,10911 Z"/><path d="M 8231,12721 L 8231,12721 8389,12930 8379,12912 8480,13148 8480,13148 8668,13638 8668,13638 C 8678,13670 8724,13688 8760,13679 8795,13670 8826,13629 8805,13593 L 8805,13593 8622,13103 8516,12862 8353,12648 8353,12648 C 8333,12612 8287,12607 8247,12630 8211,12648 8201,12689 8231,12721 Z"/><path d="M 8714,13552 L 8714,13552 8343,13643 8358,13638 7988,13670 7988,13670 C 7942,13679 7911,13711 7922,13742 7922,13788 7962,13810 7998,13801 L 7998,13801 8379,13770 8760,13679 8760,13679 C 8795,13670 8815,13638 8805,13593 8795,13561 8760,13543 8714,13552 Z"/><path d="M 8714,13679 L 8714,13679 9196,13819 9176,13810 9587,14069 9587,14069 C 9623,14092 9674,14083 9689,14051 9719,14019 9709,13978 9674,13960 L 9674,13960 9252,13692 8760,13552 8760,13552 C 8724,13538 8678,13561 8668,13593 8658,13629 8678,13670 8714,13679 Z"/><path d="M 13178,14681 L 13178,14681 13188,14899 13280,15108 13280,15108 C 13300,15139 13346,15158 13381,15139 13417,15121 13437,15080 13417,15049 L 13417,15049 13326,14858 13336,14881 13326,14672 13326,14672 C 13315,14641 13290,14609 13244,14609 13204,14618 13168,14641 13178,14681 Z"/><path d="M 13976,14881 L 13976,14881 13671,14758 13671,14758 13381,14618 13381,14618 C 13356,14600 13305,14618 13290,14650 13259,14672 13280,14718 13315,14731 L 13315,14731 13605,14881 13915,15008 13915,15008 C 13950,15022 13996,15008 14016,14972 14031,14940 14016,14899 13976,14881 Z"/><path d="M 13402,14631 L 13402,14631 13122,14350 12752,14169 12416,14010 12432,14019 12152,13819 11858,13638 11431,13552 11431,13552 C 11390,13543 11355,13561 11345,13602 11335,13638 11355,13670 11401,13679 L 11401,13679 11812,13761 11782,13751 12071,13928 12061,13928 12340,14128 12686,14291 12686,14282 13036,14459 13021,14450 13300,14722 13300,14722 C 13326,14749 13371,14749 13402,14722 13427,14699 13427,14659 13402,14631 Z"/><path d="M 11477,13661 L 11477,13661 11634,13479 11782,13248 11782,13248 C 11802,13212 11782,13180 11746,13153 11716,13139 11670,13153 11655,13189 L 11655,13189 11512,13411 11512,13393 11355,13570 11355,13570 C 11335,13602 11335,13643 11365,13670 11401,13688 11446,13688 11477,13661 Z"/><path d="M 11700,13330 L 11700,13330 11893,13361 12091,13343 12081,13343 12264,13352 12249,13352 12432,13411 12432,13411 C 12472,13420 12518,13402 12528,13370 12543,13339 12518,13293 12482,13289 L 12482,13289 12284,13230 12091,13212 11893,13221 11914,13230 11726,13203 11726,13203 C 11680,13198 11644,13221 11644,13252 11634,13293 11660,13330 11700,13330 Z"/><path d="M 11756,13162 L 11756,13162 11670,13103 11700,13130 11655,13053 11655,13053 C 11624,13021 11589,13003 11548,13021 11512,13048 11492,13080 11523,13112 L 11523,13112 11568,13203 11670,13271 11670,13271 C 11700,13293 11746,13289 11771,13252 11802,13230 11792,13189 11756,13162 Z"/><path d="M 11411,13470 L 11411,13470 11223,13479 11253,13488 11020,13429 11020,13429 10776,13343 10786,13343 10573,13271 10182,13189 9846,13139 9857,13139 9577,13062 9608,13071 9384,12899 9384,12899 C 9344,12881 9298,12881 9283,12903 9252,12940 9252,12980 9283,12998 L 9283,12998 9521,13189 9821,13262 10156,13311 10156,13311 10537,13393 10527,13393 10730,13470 10974,13552 11223,13620 11421,13602 11421,13602 C 11456,13602 11492,13570 11492,13538 11487,13502 11456,13470 11411,13470 Z"/><path d="M 9400,12921 L 9400,12921 9262,12657 9085,12399 8826,12181 8465,12090 8465,12090 C 8424,12081 8379,12099 8369,12131 8358,12163 8379,12208 8414,12213 L 8414,12213 8760,12308 8734,12290 8973,12489 8963,12480 9130,12721 9125,12712 9262,12980 9262,12980 C 9283,13012 9328,13030 9364,13012 9400,12998 9420,12953 9400,12921 Z"/><path d="M 9339,12940 L 9339,12940 9059,12921 9085,12930 8836,12821 8836,12821 8582,12712 8297,12680 8297,12680 C 8257,12680 8221,12703 8221,12748 8211,12780 8242,12812 8287,12812 L 8287,12812 8556,12839 8526,12839 8770,12949 9029,13053 9328,13071 9328,13071 C 9364,13080 9400,13048 9410,13012 9410,12980 9374,12949 9339,12940 Z"/><path d="M 8302,12621 L 8302,12621 7856,12530 7866,12530 7358,12408 7358,12408 6814,12249 6814,12249 6317,12081 6322,12081 6073,11981 6093,11990 5931,11873 5931,11882 5763,11723 5590,11560 5367,11428 5103,11369 4900,11342 4920,11342 4548,11160 4574,11179 4335,10911 4335,10911 C 4304,10884 4259,10879 4223,10902 4193,10929 4193,10970 4213,11002 L 4213,11002 4462,11278 4864,11469 5077,11492 5067,11492 5311,11551 5291,11541 5494,11668 5489,11659 5661,11818 5661,11818 5829,11972 5997,12099 6266,12208 6769,12372 7307,12530 7830,12657 8277,12748 8277,12748 C 8313,12753 8353,12739 8358,12698 8369,12662 8353,12630 8302,12621 Z"/><path d="M 4350,10952 L 4350,10421 4350,10421 C 4350,10389 4315,10353 4279,10353 4228,10353 4203,10389 4203,10421 L 4203,10952 4203,10952 C 4203,10993 4228,11020 4279,11020 4315,11020 4350,10993 4350,10952 Z"/><path d="M 15383,11972 L 15383,11972 15084,12272 15094,12263 14733,12508 14738,12499 14352,12671 14368,12671 13930,12753 13930,12753 C 13894,12762 13864,12798 13874,12830 13884,12862 13920,12890 13960,12881 L 13960,12881 14408,12798 14815,12612 15185,12362 15495,12068 15495,12068 C 15510,12031 15510,11990 15485,11968 15455,11950 15399,11950 15383,11972 Z"/><path d="M 16034,11950 L 15439,11950 15439,11950 C 15394,11950 15363,11981 15363,12018 15363,12059 15394,12081 15439,12081 L 16034,12081 16034,12081 C 16069,12081 16110,12059 16110,12018 16110,11981 16069,11950 16034,11950 Z"/><path d="M 15485,11972 L 15485,11972 15338,11850 15338,11850 15185,11709 15185,11709 C 15160,11682 15114,11682 15084,11709 15058,11732 15058,11773 15084,11800 L 15084,11800 15236,11941 15383,12068 15383,12068 C 15409,12090 15455,12090 15485,12068 15510,12040 15510,12000 15485,11972 Z"/><path d="M 1922,12621 L 1922,12621 1821,12571 1856,12607 1811,12521 1811,12521 C 1795,12489 1745,12471 1709,12489 1673,12508 1653,12548 1673,12580 L 1673,12580 1729,12680 1856,12739 1856,12739 C 1897,12762 1933,12748 1963,12712 1978,12680 1963,12648 1922,12621 Z"/><path d="M 7078,12890 L 7078,12890 6611,13021 6632,13012 6139,13048 6149,13048 5636,13048 5159,13053 5159,13053 C 5123,13062 5088,13089 5098,13130 5098,13162 5123,13198 5169,13189 L 5169,13189 5646,13180 5646,13180 6149,13180 6647,13148 7124,13012 7124,13012 C 7160,13003 7190,12962 7170,12930 7160,12899 7114,12871 7078,12890 Z"/><path d="M 5235,13248 L 5235,13248 5301,13112 5301,13112 5382,12980 5382,12980 C 5402,12953 5382,12912 5347,12890 5321,12871 5270,12890 5255,12921 L 5255,12921 5159,13053 5098,13189 5098,13189 C 5077,13221 5098,13262 5133,13280 5169,13293 5214,13280 5235,13248 Z"/><path d="M 5123,13153 L 5123,13153 4884,13289 4900,13280 4574,13370 4584,13370 4172,13420 4182,13411 3725,13452 3725,13452 3456,13470 3233,13502 3233,13493 3030,13502 3050,13511 2837,13479 2852,13479 2547,13352 2567,13370 2298,13153 2303,13162 2090,12912 2100,12921 1963,12657 1963,12657 C 1943,12621 1897,12607 1856,12621 1821,12639 1800,12680 1821,12712 L 1821,12712 1968,12989 2192,13248 2471,13470 2796,13602 3030,13643 3243,13629 3477,13602 3466,13602 3736,13588 4193,13543 4609,13493 4955,13402 5209,13262 5209,13262 C 5235,13248 5255,13203 5225,13171 5209,13148 5159,13130 5123,13153 Z"/><path d="M 1968,12680 L 1968,12149 1968,12149 C 1968,12113 1933,12081 1897,12081 1851,12081 1821,12113 1821,12149 L 1821,12680 1821,12680 C 1821,12721 1851,12748 1897,12748 1933,12748 1968,12721 1968,12680 Z"/><path d="M 6053,16836 L 6053,16836 5514,16840 5524,16840 4930,16836 4930,16836 4340,16809 4350,16818 3837,16741 3837,16741 C 3791,16736 3756,16759 3756,16791 3746,16836 3776,16868 3812,16868 L 3812,16868 4335,16940 4920,16967 5524,16977 6063,16967 6063,16967 C 6098,16967 6139,16940 6139,16899 6129,16868 6098,16836 6053,16836 Z"/><path d="M 6926,16877 L 6926,16877 6555,16967 6576,16967 6205,17008 6205,17008 C 6154,17008 6129,17040 6139,17076 6139,17117 6174,17140 6220,17131 L 6220,17131 6591,17090 6977,16999 6977,16999 C 7012,16990 7033,16958 7023,16918 7012,16886 6977,16868 6926,16877 Z"/><path d="M 7104,16999 L 6362,16999 6362,16999 C 6317,16999 6286,17031 6286,17067 6286,17108 6317,17131 6362,17131 L 7104,17131 7104,17131 C 7139,17131 7180,17108 7180,17067 7180,17031 7139,16999 7104,16999 Z"/></g></g></g></g></svg>