<?xml version="1.0" encoding="UTF-8"?>
<!DOCTYPE svg PUBLIC "-//W3C//DTD SVG 1.1//EN" "http://www.w3.org/Graphics/SVG/1.1/DTD/svg11.dtd"><svg version="1.1" viewBox="0 0 21590 27940" preserveAspectRatio="xMidYMid" fill-rule="evenodd" xmlns="http://www.w3.org/2000/svg" xmlns:xlink="http://www.w3.org/1999/xlink"><g visibility="visible" id="Default"><desc>Master slide</desc><g style="stroke:none;fill:none"><rect x="986" y="986" width="19620" height="25970"/></g></g><g visibility="visible" id="page1"><desc>Slide</desc><g><desc>Graphic</desc><g><g style="stroke:none;fill:rgb(255,245,238)"><path d="M 11058,14961 C 10976,14822 10914,14682 10937,14533 10831,14518 10842,14355 10850,14319 10806,14308 10735,14337 10667,14317 10654,14313 10645,14310 10633,14304 10510,14258 10389,14242 10451,14083 10451,14081 10451,14081 10451,14079 10362,14064 10286,14009 10200,13982 10151,13978 10107,13943 10083,13900 10083,13900 10083,13898 10083,13898 10041,13868 10014,13812 10019,13760 9995,13727 10001,13661 10023,13611 10025,13609 10026,13607 10026,13602 10028,13545 10059,13498 10089,13476 10136,13353 10263,13287 10372,13234 10400,13214 10446,13183 10493,13173 10539,13164 10594,13164 10647,13155 10702,13146 10737,13142 10786,13155 10788,13159 10790,13161 10792,13161 10794,13161 10797,13159 10802,13159 10883,13159 10883,13159 10883,13159 10925,13179 10978,13155 11022,13179 11080,13142 11122,13194 11166,13210 11188,13219 11218,13216 11240,13223 11282,13236 11335,13278 11377,13300 11452,13302 11516,13364 11540,13432 11609,13476 11661,13554 11670,13634 11725,13663 11761,13722 11751,13784 11814,13846 11808,13940 11777,14017 11772,14026 11772,14026 11772,14026 11775,14150 11666,14165 11604,14160 11685,14275 11423,14436 11408,14440 11337,14493 11227,14463 11155,14421 11146,14624 11159,14776 11186,14961 Z"/></g><g style="stroke:rgb(255,102,0);fill:rgb(255,102,0)"><path d="M 11045,14968 L 11045,14968 10989,14864 10945,14756 10921,14646 10923,14533 10934,14548 10895,14533 10866,14507 10839,14438 10831,14368 10833,14337 10835,14319 10850,14333 10813,14332 10815,14332 10768,14335 10719,14341 10664,14332 10629,14319 10629,14319 10537,14288 10466,14249 10438,14220 10422,14182 10422,14134 10438,14079 10437,14083 10437,14079 10448,14094 10383,14075 10319,14050 10195,13997 10199,13997 10160,13989 10123,13969 10069,13905 10069,13898 10072,13909 10021,13845 10008,13802 10004,13762 10006,13768 9993,13735 9990,13693 10010,13607 10014,13596 10014,13598 10034,13519 10078,13466 10078,13468 10127,13384 10200,13318 10281,13265 10367,13221 10365,13223 10420,13186 10492,13161 10568,13151 10647,13142 10719,13133 10794,13142 10804,13151 10790,13148 10802,13144 10848,13144 10873,13144 10881,13144 10886,13144 10921,13155 10915,13153 10952,13153 10991,13153 11027,13166 11018,13166 11062,13151 11106,13162 11141,13181 11141,13181 11174,13197 11170,13197 11207,13205 11207,13205 11245,13210 11316,13245 11386,13289 11381,13287 11437,13298 11489,13331 11527,13375 11555,13426 11549,13421 11598,13461 11641,13512 11670,13571 11685,13632 11679,13623 11717,13652 11750,13691 11764,13737 11766,13784 11764,13777 11801,13830 11816,13896 11810,13960 11792,14024 11784,14033 11786,14024 11786,14028 11770,14110 11721,14156 11661,14172 11606,14174 11619,14156 11635,14205 11624,14257 11595,14308 11553,14352 11465,14423 11434,14443 11415,14454 11351,14480 11280,14484 11212,14463 11150,14436 11170,14423 11166,14567 11166,14565 11172,14697 11172,14697 11183,14827 11183,14825 11201,14959 11201,14959 C 11203,14968 11197,14975 11190,14975 11181,14977 11174,14972 11174,14964 L 11174,14964 11155,14829 11143,14699 11137,14567 11143,14399 11223,14436 11221,14436 11287,14454 11282,14453 11348,14451 11342,14453 11403,14427 11403,14427 11419,14418 11417,14420 11448,14399 11446,14399 11533,14330 11533,14332 11573,14290 11571,14291 11598,14244 11597,14249 11606,14203 11606,14211 11586,14147 11657,14143 11653,14145 11708,14128 11703,14132 11746,14092 11742,14099 11759,14024 11757,14026 11757,14020 11766,14009 11764,14013 11783,13953 11781,13956 11784,13896 11786,13900 11773,13839 11775,13845 11739,13790 11734,13740 11736,13744 11721,13702 11723,13705 11696,13671 11699,13674 11657,13643 11642,13578 11642,13582 11615,13527 11617,13530 11576,13481 11578,13483 11529,13443 11501,13389 11505,13393 11468,13353 11470,13355 11423,13324 11428,13325 11371,13314 11302,13270 11304,13272 11234,13238 11238,13238 11201,13232 11163,13225 11128,13208 11095,13188 11099,13190 11060,13181 11067,13181 11022,13195 10983,13183 10987,13183 10952,13183 10914,13183 10879,13173 10883,13173 10881,13173 10873,13173 10848,13173 10802,13173 10806,13173 10788,13177 10777,13166 10786,13170 10719,13162 10720,13162 10649,13170 10649,13170 10570,13179 10570,13179 10495,13188 10499,13188 10431,13214 10435,13212 10380,13247 10296,13291 10297,13289 10217,13342 10219,13340 10149,13404 10151,13402 10101,13485 10059,13536 10061,13529 10041,13607 10037,13618 10037,13616 10019,13696 10019,13693 10021,13731 10021,13726 10034,13759 10036,13799 10036,13795 10048,13834 10047,13828 10098,13894 10098,13900 10096,13890 10145,13947 10142,13945 10173,13964 10167,13962 10206,13969 10332,14022 10332,14022 10394,14048 10393,14048 10466,14068 10466,14086 10451,14141 10451,14136 10451,14178 10451,14174 10464,14207 10460,14202 10484,14227 10481,14224 10550,14260 10548,14260 10638,14291 10673,14304 10671,14304 10722,14312 10719,14310 10766,14306 10813,14302 10866,14306 10862,14339 10862,14339 10861,14368 10861,14366 10866,14434 10866,14429 10892,14493 10888,14487 10914,14509 10908,14507 10954,14524 10950,14646 10950,14642 10972,14748 10972,14745 11016,14851 11014,14851 11071,14955 11071,14955 C 11077,14963 11073,14970 11066,14974 11058,14979 11051,14975 11045,14968 Z"/><path d="M 10389,13239 L 10389,13239 10376,13258 10356,13272 10356,13272 C 10349,13278 10340,13276 10336,13269 10330,13261 10332,13252 10340,13248 L 10340,13248 10358,13236 10354,13239 10365,13223 10365,13223 C 10369,13216 10378,13214 10385,13219 10393,13223 10394,13232 10389,13239 Z"/><path d="M 10003,13746 L 10003,13746 10063,13775 10120,13804 10120,13804 C 10127,13808 10131,13817 10127,13824 10123,13832 10114,13835 10107,13832 L 10107,13832 10050,13802 10050,13802 9990,13773 9990,13773 C 9982,13770 9979,13760 9982,13753 9986,13746 9995,13742 10003,13746 Z"/><path d="M 10091,13892 L 10149,13921 10149,13921 C 10156,13925 10160,13934 10156,13942 10153,13949 10144,13953 10136,13949 L 10078,13920 10078,13920 C 10070,13916 10067,13907 10070,13900 10074,13892 10083,13889 10091,13892 Z"/><path d="M 10199,13964 L 10199,13964 10232,13958 10263,13965 10321,13980 10321,13980 C 10330,13982 10334,13989 10332,13997 10330,14006 10323,14009 10316,14008 L 10316,14008 10257,13993 10257,13993 10228,13987 10232,13987 10202,13991 10202,13991 C 10195,13993 10188,13987 10188,13978 10186,13971 10191,13964 10199,13964 Z"/><path d="M 10426,14072 L 10426,14072 10470,14030 10470,14030 10513,13984 10513,13984 C 10519,13978 10528,13978 10534,13984 10539,13989 10539,13998 10534,14004 L 10534,14004 10490,14050 10446,14092 10446,14092 C 10440,14097 10431,14097 10426,14092 10420,14086 10420,14077 10426,14072 Z"/><path d="M 10524,14015 L 10524,14015 10466,14019 10411,13997 10362,13971 10362,13971 10312,13949 10312,13949 C 10305,13945 10301,13936 10305,13929 10308,13921 10318,13918 10325,13921 L 10325,13921 10374,13943 10424,13969 10422,13969 10473,13989 10468,13987 10523,13986 10523,13986 C 10532,13986 10537,13993 10537,14000 10539,14009 10532,14015 10524,14015 Z"/><path d="M 10515,13982 L 10515,13982 10590,13925 10589,13925 10660,13865 10660,13865 C 10667,13859 10676,13861 10682,13867 10686,13874 10686,13883 10680,13889 L 10680,13889 10607,13949 10532,14006 10532,14006 C 10526,14011 10517,14009 10512,14002 10506,13997 10508,13987 10515,13982 Z"/><path d="M 10664,13890 L 10664,13890 10633,13876 10609,13850 10583,13788 10561,13727 10563,13733 10543,13709 10548,13713 10519,13698 10523,13698 10504,13694 10506,13694 10481,13694 10488,13694 10462,13705 10468,13702 10448,13726 10448,13726 C 10442,13731 10433,13731 10426,13727 10420,13722 10418,13713 10424,13705 L 10424,13705 10448,13680 10479,13665 10508,13665 10530,13671 10565,13687 10589,13715 10611,13779 10611,13777 10634,13835 10631,13832 10651,13854 10647,13850 10676,13863 10676,13863 C 10684,13867 10687,13876 10684,13883 10680,13890 10671,13894 10664,13890 Z"/><path d="M 10446,13720 L 10446,13720 10482,13755 10506,13799 10504,13797 10528,13837 10526,13834 10563,13865 10563,13865 C 10568,13870 10568,13879 10565,13887 10559,13892 10550,13892 10543,13889 L 10543,13889 10504,13856 10479,13812 10457,13770 10460,13773 10426,13740 10426,13740 C 10420,13735 10420,13726 10426,13720 10431,13715 10440,13715 10446,13720 Z"/><path d="M 10435,13729 L 10435,13729 10385,13726 10393,13726 10354,13744 10354,13744 C 10347,13748 10338,13744 10334,13737 10330,13729 10334,13720 10341,13716 L 10341,13716 10383,13696 10437,13700 10437,13700 C 10444,13702 10451,13709 10449,13716 10449,13724 10442,13731 10435,13729 Z"/><path d="M 10362,13729 L 10362,13759 10362,13759 C 10362,13768 10356,13773 10347,13773 10340,13773 10332,13768 10332,13759 L 10332,13729 10332,13729 C 10332,13722 10340,13715 10347,13715 10356,13715 10362,13722 10362,13729 Z"/><path d="M 10356,13744 L 10356,13744 10347,13751 10334,13760 10290,13757 10297,13757 10263,13771 10266,13768 10237,13793 10239,13791 10213,13826 10213,13826 C 10208,13834 10199,13835 10193,13830 10186,13824 10184,13815 10189,13810 L 10189,13810 10217,13773 10248,13746 10288,13727 10330,13729 10321,13733 10330,13727 10329,13727 10338,13720 10338,13720 C 10345,13715 10354,13716 10360,13722 10363,13729 10363,13738 10356,13744 Z"/><path d="M 10215,13817 L 10215,13846 10215,13846 C 10215,13856 10210,13861 10200,13861 10193,13861 10186,13856 10186,13846 L 10186,13817 10186,13817 C 10186,13810 10193,13802 10200,13802 10210,13802 10215,13810 10215,13817 Z"/><path d="M 10200,13832 L 10200,13832 10217,13832 10230,13832 10230,13832 C 10239,13832 10244,13839 10244,13846 10244,13856 10239,13861 10230,13861 L 10230,13861 10217,13861 10200,13861 10200,13861 C 10193,13861 10186,13856 10186,13846 10186,13839 10193,13832 10200,13832 Z"/><path d="M 10193,13859 L 10193,13859 10175,13846 10160,13826 10160,13826 C 10155,13819 10156,13810 10164,13806 10169,13801 10178,13802 10184,13810 L 10184,13810 10197,13828 10193,13824 10210,13835 10210,13835 C 10217,13839 10219,13848 10213,13856 10210,13863 10200,13865 10193,13859 Z"/><path d="M 10164,13830 L 10164,13830 10145,13817 10131,13797 10131,13797 C 10125,13790 10127,13781 10134,13777 10140,13771 10149,13773 10155,13781 L 10155,13781 10167,13799 10164,13795 10180,13806 10180,13806 C 10188,13810 10189,13819 10184,13826 10180,13834 10171,13835 10164,13830 Z"/><path d="M 10667,13863 L 10667,13863 10742,13848 10742,13848 10815,13834 10815,13834 C 10822,13832 10829,13837 10831,13845 10833,13852 10828,13859 10820,13861 L 10820,13861 10748,13876 10673,13890 10673,13890 C 10665,13892 10656,13887 10656,13879 10654,13872 10660,13863 10667,13863 Z"/><path d="M 10792,13841 L 10792,13841 10802,13819 10800,13824 10800,13802 10802,13808 10784,13764 10784,13766 10763,13722 10755,13674 10755,13674 C 10753,13665 10759,13658 10766,13658 10775,13656 10783,13661 10783,13669 L 10783,13669 10790,13715 10790,13711 10813,13753 10829,13801 10829,13828 10820,13854 10820,13854 C 10817,13861 10807,13865 10800,13861 10792,13857 10788,13848 10792,13841 Z"/><path d="M 10813,13834 L 10813,13834 10875,13815 10873,13815 10903,13801 10899,13804 10925,13779 10925,13779 C 10930,13773 10939,13773 10945,13779 10950,13784 10950,13793 10945,13799 L 10945,13799 10917,13826 10884,13843 10822,13861 10822,13861 C 10813,13863 10806,13859 10804,13852 10802,13843 10806,13835 10813,13834 Z"/><path d="M 10917,13801 L 10917,13801 10884,13777 10855,13744 10850,13698 10866,13654 10886,13611 10886,13613 10901,13567 10901,13567 10921,13490 10921,13490 C 10923,13483 10930,13479 10937,13481 10947,13483 10950,13490 10948,13498 L 10948,13498 10928,13576 10914,13623 10894,13667 10894,13665 10879,13705 10879,13700 10883,13737 10879,13727 10905,13757 10903,13755 10934,13777 10934,13777 C 10941,13781 10943,13790 10937,13797 10932,13804 10923,13806 10917,13801 Z"/><path d="M 10919,13494 L 10919,13465 10919,13465 C 10919,13457 10926,13450 10934,13450 10943,13450 10948,13457 10948,13465 L 10948,13494 10948,13494 C 10948,13503 10943,13509 10934,13509 10926,13509 10919,13503 10919,13494 Z"/><path d="M 10926,13483 L 10926,13483 10963,13457 10959,13461 10987,13426 10985,13430 11009,13344 11009,13344 C 11011,13336 11018,13333 11027,13335 11035,13336 11038,13344 11036,13353 L 11036,13353 11013,13441 10981,13479 10943,13507 10943,13507 C 10936,13512 10926,13510 10923,13503 10917,13496 10919,13487 10926,13483 Z"/><path d="M 11007,13347 L 11007,13318 11007,13318 C 11007,13311 11014,13303 11022,13303 11031,13303 11036,13311 11036,13318 L 11036,13347 11036,13347 C 11036,13357 11031,13362 11022,13362 11014,13362 11007,13357 11007,13347 Z"/><path d="M 11009,13346 L 11009,13346 11029,13258 11027,13261 11024,13214 11025,13217 11009,13177 11009,13177 C 11005,13170 11009,13162 11016,13159 11025,13155 11033,13159 11036,13166 L 11036,13166 11053,13210 11058,13261 11036,13351 11036,13351 C 11035,13360 11027,13364 11020,13362 11011,13360 11007,13353 11009,13346 Z"/><path d="M 11490,14418 L 11315,14418 11315,14418 C 11307,14418 11300,14412 11300,14403 11300,14396 11307,14388 11315,14388 L 11490,14388 11490,14388 C 11500,14388 11505,14396 11505,14403 11505,14412 11500,14418 11490,14418 Z"/><path d="M 11496,14388 L 11496,14388 11408,14412 11316,14414 11316,14414 C 11307,14416 11302,14409 11300,14401 11300,14392 11307,14387 11315,14385 L 11315,14385 11404,14383 11401,14385 11487,14361 11487,14361 C 11496,14359 11503,14363 11505,14370 11507,14379 11503,14387 11496,14388 Z"/><path d="M 11344,14359 L 11344,14359 11284,14359 11227,14359 11227,14359 C 11219,14359 11212,14354 11212,14344 11212,14337 11219,14330 11227,14330 L 11227,14330 11284,14330 11344,14330 11344,14330 C 11353,14330 11359,14337 11359,14344 11359,14354 11353,14359 11344,14359 Z"/><path d="M 11009,14312 L 11009,14312 11014,14332 11011,14326 11025,14341 11024,14339 11060,14363 11060,14363 C 11067,14366 11069,14376 11064,14383 11060,14390 11051,14392 11044,14387 L 11044,14387 11005,14363 10987,14344 10981,14321 10981,14321 C 10980,14312 10983,14304 10991,14302 11000,14301 11007,14304 11009,14312 Z"/><path d="M 11060,14363 L 11148,14421 11148,14421 C 11155,14425 11157,14434 11152,14442 11148,14449 11139,14451 11132,14445 L 11044,14387 11044,14387 C 11036,14383 11035,14374 11040,14366 11044,14359 11053,14357 11060,14363 Z"/><path d="M 11432,14447 L 11432,14447 11386,14447 11329,14447 11197,14447 11197,14447 C 11190,14447 11183,14442 11183,14432 11183,14425 11190,14418 11197,14418 L 11197,14418 11329,14418 11386,14418 11432,14418 11432,14418 C 11441,14418 11446,14425 11446,14432 11446,14442 11441,14447 11432,14447 Z"/><path d="M 11428,14244 L 11428,14244 11468,14233 11468,14233 11518,14218 11518,14218 11566,14203 11564,14203 11602,14185 11602,14185 C 11609,14182 11619,14185 11622,14192 11626,14200 11622,14209 11615,14213 L 11615,14213 11575,14231 11527,14246 11478,14260 11437,14271 11437,14271 C 11428,14273 11421,14269 11419,14262 11417,14253 11421,14246 11428,14244 Z"/><path d="M 11403,14271 L 11432,14271 11432,14271 C 11441,14271 11446,14279 11446,14286 11446,14295 11441,14301 11432,14301 L 11403,14301 11403,14301 C 11395,14301 11388,14295 11388,14286 11388,14279 11395,14271 11403,14271 Z"/><path d="M 11329,14317 L 11329,14317 11331,14321 11320,14313 11375,14321 11371,14319 11434,14317 11432,14319 11547,14302 11547,14302 C 11556,14301 11564,14306 11564,14313 11566,14322 11560,14330 11553,14330 L 11553,14330 11436,14346 11371,14348 11307,14341 11302,14330 11302,14330 C 11298,14322 11302,14313 11309,14310 11316,14306 11326,14310 11329,14317 Z"/><path d="M 11582,14301 L 11582,14301 11483,14321 11375,14328 11375,14328 C 11368,14330 11360,14322 11359,14315 11359,14308 11366,14301 11373,14299 L 11373,14299 11479,14291 11478,14293 11576,14273 11576,14273 C 11584,14271 11591,14277 11593,14284 11595,14291 11589,14299 11582,14301 Z"/><path d="M 11613,14271 L 11613,14271 11512,14310 11457,14322 11406,14330 11406,14330 C 11397,14332 11390,14326 11390,14319 11388,14310 11393,14302 11401,14302 L 11401,14302 11452,14295 11452,14295 11505,14282 11503,14282 11604,14244 11604,14244 C 11611,14240 11619,14244 11622,14253 11626,14260 11620,14268 11613,14271 Z"/><path d="M 11615,14242 L 11615,14242 11542,14275 11467,14301 11467,14301 C 11459,14302 11450,14299 11448,14291 11445,14284 11450,14275 11457,14273 L 11457,14273 11533,14247 11531,14247 11602,14214 11602,14214 C 11609,14211 11619,14214 11622,14222 11626,14229 11622,14238 11615,14242 Z"/><path d="M 11611,14242 L 11611,14242 11542,14258 11465,14271 11465,14271 C 11456,14273 11448,14268 11448,14260 11446,14251 11452,14244 11459,14244 L 11459,14244 11536,14231 11536,14231 11606,14214 11606,14214 C 11613,14213 11620,14216 11622,14225 11624,14233 11620,14240 11611,14242 Z"/><path d="M 11611,14213 L 11611,14213 11533,14225 11533,14225 11437,14246 11331,14264 11229,14271 11229,14271 C 11221,14273 11214,14266 11212,14258 11212,14251 11218,14244 11227,14242 L 11227,14242 11329,14235 11327,14236 11432,14218 11432,14218 11527,14198 11606,14185 11606,14185 C 11615,14183 11622,14189 11622,14196 11624,14205 11619,14213 11611,14213 Z"/><path d="M 11003,14277 L 11003,14277 11018,14291 11033,14306 11033,14306 C 11038,14312 11038,14321 11033,14326 11027,14332 11018,14332 11013,14326 L 11013,14326 10998,14312 10983,14297 10983,14297 C 10978,14291 10978,14282 10983,14277 10989,14271 10998,14271 11003,14277 Z"/><path d="M 11025,14302 L 11025,14302 11097,14319 11095,14317 11168,14324 11166,14324 11315,14324 11315,14324 C 11324,14324 11329,14332 11329,14339 11329,14348 11324,14354 11315,14354 L 11315,14354 11166,14354 11091,14346 11020,14330 11020,14330 C 11011,14328 11007,14321 11009,14313 11011,14304 11018,14301 11025,14302 Z"/><path d="M 11300,14344 L 11300,14315 11300,14315 C 11300,14308 11307,14301 11315,14301 11324,14301 11329,14308 11329,14315 L 11329,14344 11329,14344 C 11329,14354 11324,14359 11315,14359 11307,14359 11300,14354 11300,14344 Z"/><path d="M 11311,14302 L 11311,14302 11344,14291 11340,14293 11366,14275 11366,14275 C 11371,14269 11381,14271 11386,14279 11392,14284 11390,14293 11382,14299 L 11382,14299 11355,14319 11320,14330 11320,14330 C 11313,14332 11304,14328 11302,14321 11298,14313 11304,14304 11311,14302 Z"/><path d="M 11379,14301 L 11379,14301 11335,14315 11337,14315 11311,14324 11287,14326 11287,14326 C 11280,14328 11273,14322 11271,14313 11271,14306 11276,14299 11285,14297 L 11285,14297 11307,14295 11302,14297 11326,14288 11370,14273 11370,14273 C 11377,14269 11386,14275 11388,14282 11390,14290 11386,14299 11379,14301 Z"/><path d="M 11373,14271 L 11403,14271 11403,14271 C 11412,14271 11417,14279 11417,14286 11417,14295 11412,14301 11403,14301 L 11373,14301 11373,14301 C 11366,14301 11359,14295 11359,14286 11359,14279 11366,14271 11373,14271 Z"/><path d="M 11395,14275 L 11395,14275 11412,14264 11408,14268 11421,14249 11421,14249 C 11425,14242 11434,14240 11441,14246 11448,14249 11450,14258 11445,14266 L 11445,14266 11430,14286 11412,14299 11412,14299 C 11404,14304 11395,14302 11392,14295 11386,14288 11388,14279 11395,14275 Z"/><path d="M 11423,14269 L 11423,14269 11421,14268 11434,14271 11274,14295 11111,14299 11111,14299 C 11102,14301 11097,14293 11095,14286 11095,14277 11102,14271 11110,14269 L 11110,14269 11273,14266 11271,14268 11436,14242 11443,14249 11443,14249 C 11448,14255 11448,14264 11443,14269 11437,14275 11428,14275 11423,14269 Z"/><path d="M 11300,14242 L 11300,14242 11302,14246 11285,14238 11366,14227 11364,14227 11443,14202 11443,14202 11523,14174 11608,14167 11608,14167 C 11615,14167 11622,14174 11622,14182 11624,14189 11617,14196 11609,14196 L 11609,14196 11527,14202 11531,14202 11452,14229 11371,14255 11280,14268 11273,14255 11273,14255 C 11269,14247 11273,14238 11280,14235 11287,14231 11296,14235 11300,14242 Z"/><path d="M 10930,13775 L 10930,13775 10992,13759 10992,13759 11053,13735 11051,13735 11124,13705 11122,13707 11148,13689 11143,13694 11155,13665 11155,13665 C 11159,13658 11168,13654 11175,13658 11183,13661 11186,13671 11183,13678 L 11183,13678 11168,13711 11137,13733 11062,13762 11002,13786 10939,13802 10939,13802 C 10930,13804 10923,13801 10921,13793 10919,13784 10923,13777 10930,13775 Z"/><path d="M 11154,13671 L 11154,13641 11154,13641 C 11154,13634 11161,13627 11168,13627 11177,13627 11183,13634 11183,13641 L 11183,13671 11183,13671 C 11183,13680 11177,13685 11168,13685 11161,13685 11154,13680 11154,13671 Z"/><path d="M 11175,13658 L 11175,13658 11205,13674 11203,13674 11232,13685 11232,13685 C 11240,13689 11245,13696 11241,13704 11238,13711 11230,13716 11223,13713 L 11223,13713 11192,13702 11163,13683 11163,13683 C 11155,13680 11152,13671 11155,13665 11161,13658 11170,13654 11175,13658 Z"/><path d="M 10844,14302 L 10844,14302 10917,14293 10915,14293 10989,14273 10989,14273 C 10998,14271 11005,14275 11007,14282 11009,14291 11005,14299 10998,14301 L 10998,14301 10923,14321 10848,14330 10848,14330 C 10840,14332 10833,14326 10833,14317 10831,14310 10837,14302 10844,14302 Z"/><path d="M 10991,14273 L 11137,14244 11137,14244 C 11144,14242 11152,14247 11154,14255 11155,14262 11150,14269 11143,14271 L 10996,14301 10996,14301 C 10989,14302 10980,14297 10980,14290 10978,14282 10983,14273 10991,14273 Z"/><path d="M 11139,14242 L 11139,14242 11141,14242 11137,14244 11230,14214 11227,14216 11307,14158 11307,14158 C 11313,14152 11322,14154 11327,14161 11333,14167 11331,14176 11324,14182 L 11324,14182 11241,14242 11144,14271 11139,14271 11139,14271 C 11132,14271 11124,14266 11124,14257 11124,14249 11132,14242 11139,14242 Z"/><path d="M 11315,14183 L 11285,14183 11285,14183 C 11278,14183 11271,14178 11271,14169 11271,14161 11278,14154 11285,14154 L 11315,14154 11315,14154 C 11324,14154 11329,14161 11329,14169 11329,14178 11324,14183 11315,14183 Z"/><path d="M 11309,14156 L 11309,14156 11338,14139 11368,14127 11368,14127 C 11375,14123 11384,14127 11388,14134 11392,14141 11388,14150 11381,14154 L 11381,14154 11351,14167 11351,14165 11322,14182 11322,14182 C 11316,14187 11307,14183 11302,14176 11298,14171 11302,14161 11309,14156 Z"/><path d="M 11139,14236 L 11139,14236 11214,14233 11210,14235 11282,14214 11282,14214 C 11291,14213 11298,14216 11300,14224 11302,14233 11298,14240 11291,14242 L 11291,14242 11218,14262 11141,14266 11141,14266 C 11132,14268 11126,14260 11124,14253 11124,14244 11132,14238 11139,14236 Z"/><path d="M 11282,14214 L 11282,14214 11412,14163 11478,14141 11547,14127 11547,14127 C 11555,14125 11562,14128 11564,14138 11566,14145 11560,14152 11553,14154 L 11553,14154 11485,14169 11487,14169 11421,14191 11421,14191 11291,14242 11291,14242 C 11284,14246 11276,14242 11273,14233 11269,14225 11273,14218 11282,14214 Z"/><path d="M 11545,14154 L 11545,14154 11390,14110 11393,14110 11227,14099 11227,14099 C 11219,14099 11212,14092 11212,14084 11214,14077 11221,14070 11229,14070 L 11229,14070 11397,14083 11555,14127 11555,14127 C 11562,14128 11566,14136 11564,14145 11562,14152 11555,14156 11545,14154 Z"/><path d="M 11241,14110 L 11241,14110 11241,14127 11144,14150 11148,14150 11062,14185 10972,14209 10923,14213 10873,14202 10873,14202 C 10866,14200 10861,14192 10862,14185 10862,14178 10872,14172 10879,14174 L 10879,14174 10926,14183 10923,14182 10969,14180 10965,14182 11053,14158 11051,14158 11137,14123 11223,14101 11212,14114 11212,14110 11212,14110 C 11212,14103 11219,14095 11227,14095 11236,14095 11241,14103 11241,14110 Z"/><path d="M 10877,14187 L 10877,14187 10831,14192 10837,14192 10794,14211 10748,14229 10704,14242 10704,14242 C 10695,14244 10687,14240 10686,14233 10684,14224 10687,14216 10695,14214 L 10695,14214 10739,14202 10737,14202 10781,14183 10781,14183 10826,14165 10875,14160 10875,14160 C 10883,14158 10890,14163 10890,14172 10892,14180 10886,14187 10877,14187 Z"/><path d="M 10870,14183 L 10870,14183 10829,14167 10831,14167 10783,14154 10783,14154 C 10775,14152 10772,14145 10773,14136 10775,14128 10783,14125 10792,14127 L 10792,14127 10840,14139 10881,14156 10881,14156 C 10890,14160 10894,14167 10890,14174 10886,14183 10879,14187 10870,14183 Z"/><path d="M 11212,14110 L 11212,14110 11212,14108 11221,14123 11179,14105 11183,14105 11137,14095 11137,14095 C 11130,14094 11124,14086 11126,14079 11126,14072 11135,14066 11143,14068 L 11143,14068 11190,14077 11241,14099 11241,14110 11241,14110 C 11241,14119 11236,14125 11227,14125 11219,14125 11212,14119 11212,14110 Z"/><path d="M 11555,14127 L 11555,14127 11586,14136 11617,14158 11617,14158 C 11624,14161 11626,14171 11620,14178 11617,14185 11608,14187 11600,14182 L 11600,14182 11571,14161 11575,14163 11545,14154 11545,14154 C 11538,14152 11534,14143 11536,14136 11538,14128 11547,14125 11555,14127 Z"/><path d="M 11795,14033 L 11795,14033 11734,14092 11688,14112 11637,14112 11637,14112 C 11630,14112 11622,14106 11622,14097 11622,14090 11630,14083 11637,14083 L 11637,14083 11685,14083 11679,14084 11719,14066 11716,14070 11775,14013 11775,14013 C 11781,14008 11790,14008 11795,14013 11801,14019 11801,14028 11795,14033 Z"/><path d="M 11637,14125 L 11578,14125 11578,14125 C 11571,14125 11564,14119 11564,14110 11564,14103 11571,14095 11578,14095 L 11637,14095 11637,14095 C 11646,14095 11652,14103 11652,14110 11652,14119 11646,14125 11637,14125 Z"/><path d="M 11628,14101 L 11628,14101 11657,14072 11686,14042 11686,14042 C 11692,14037 11701,14037 11707,14042 11712,14048 11712,14057 11707,14062 L 11707,14062 11677,14092 11648,14121 11648,14121 C 11642,14127 11633,14127 11628,14121 11622,14116 11622,14106 11628,14101 Z"/><path d="M 11406,14456 L 11406,14456 11393,14458 11371,14460 11306,14460 11227,14449 11163,14418 11163,14418 C 11155,14414 11152,14405 11155,14398 11159,14390 11168,14387 11175,14390 L 11175,14390 11238,14421 11234,14421 11309,14432 11306,14431 11370,14431 11370,14431 11392,14429 11390,14431 11401,14429 11401,14429 C 11410,14427 11417,14432 11417,14440 11419,14449 11414,14456 11406,14456 Z"/><path d="M 11562,13444 L 11562,13444 11551,13461 11544,13472 11527,13479 11527,13479 C 11520,13483 11511,13479 11507,13472 11503,13465 11507,13455 11514,13452 L 11514,13452 11527,13446 11522,13452 11527,13444 11527,13444 11538,13428 11538,13428 C 11542,13421 11551,13419 11558,13424 11566,13428 11567,13437 11562,13444 Z"/><path d="M 11388,13283 L 11417,13342 11417,13342 C 11421,13349 11417,13358 11410,13362 11403,13366 11393,13362 11390,13355 L 11360,13296 11360,13296 C 11357,13289 11360,13280 11368,13276 11375,13272 11384,13276 11388,13283 Z"/><path d="M 11348,14344 L 11348,14344 11390,14352 11386,14350 11432,14348 11430,14350 11518,14332 11518,14332 C 11525,14330 11533,14335 11534,14343 11536,14350 11531,14357 11523,14359 L 11523,14359 11434,14377 11386,14381 11342,14372 11342,14372 C 11335,14372 11329,14363 11331,14355 11331,14348 11338,14343 11348,14344 Z"/><path d="M 10200,13832 L 10171,13832 10171,13832 C 10164,13832 10156,13826 10156,13817 10156,13810 10164,13802 10171,13802 L 10200,13802 10200,13802 C 10210,13802 10215,13810 10215,13817 10215,13826 10210,13832 10200,13832 Z"/><path d="M 10552,13216 L 10698,13216 10698,13216 C 10708,13216 10713,13223 10713,13230 10713,13239 10708,13245 10698,13245 L 10552,13245 10552,13245 C 10545,13245 10537,13239 10537,13230 10537,13223 10545,13216 10552,13216 Z"/><path d="M 10103,13541 L 10103,13541 10136,13514 10136,13514 10153,13499 10149,13505 10158,13488 10158,13488 C 10164,13481 10171,13477 10178,13481 10186,13487 10189,13494 10184,13501 L 10184,13501 10175,13521 10156,13538 10123,13565 10123,13565 C 10116,13569 10107,13569 10101,13563 10096,13556 10098,13547 10103,13541 Z"/><path d="M 10171,13509 L 10142,13509 10142,13509 C 10134,13509 10127,13503 10127,13494 10127,13487 10134,13479 10142,13479 L 10171,13479 10171,13479 C 10180,13479 10186,13487 10186,13494 10186,13503 10180,13509 10171,13509 Z"/><path d="M 10160,13487 L 10160,13487 10211,13408 10275,13349 10272,13355 10275,13344 10275,13344 C 10277,13336 10286,13331 10294,13335 10301,13336 10305,13346 10303,13353 L 10303,13353 10297,13368 10233,13428 10235,13426 10184,13503 10184,13503 C 10180,13510 10171,13512 10164,13507 10156,13503 10155,13494 10160,13487 Z"/><path d="M 10277,13380 L 10277,13380 10270,13371 10288,13377 10281,13380 10283,13379 10275,13384 10266,13389 10266,13389 C 10259,13393 10250,13389 10246,13382 10242,13375 10246,13366 10253,13362 L 10253,13362 10261,13358 10259,13360 10266,13355 10286,13344 10301,13362 10301,13362 C 10305,13369 10305,13379 10297,13384 10292,13388 10283,13388 10277,13380 Z"/><path d="M 10283,13335 L 10283,13335 10354,13298 10446,13265 10502,13245 10499,13247 10545,13219 10545,13219 C 10552,13214 10561,13217 10565,13223 10570,13230 10567,13239 10561,13243 L 10561,13243 10513,13272 10455,13292 10455,13292 10365,13325 10367,13325 10296,13362 10296,13362 C 10288,13366 10279,13362 10275,13355 10272,13347 10275,13338 10283,13335 Z"/><path d="M 10543,13221 L 10543,13221 10557,13206 10572,13192 10572,13192 C 10578,13186 10587,13186 10592,13192 10598,13197 10598,13206 10592,13212 L 10592,13212 10578,13227 10563,13241 10563,13241 C 10557,13247 10548,13247 10543,13241 10537,13236 10537,13227 10543,13221 Z"/><path d="M 10809,13307 L 10809,13307 10842,13281 10839,13285 10864,13252 10864,13252 C 10870,13245 10879,13243 10884,13248 10892,13254 10894,13263 10888,13269 L 10888,13269 10861,13303 10826,13331 10826,13331 C 10820,13336 10811,13335 10806,13327 10800,13322 10802,13313 10809,13307 Z"/><path d="M 10682,13663 L 10682,13663 10702,13691 10719,13722 10742,13784 10742,13784 C 10746,13791 10742,13799 10733,13802 10726,13806 10719,13802 10715,13793 L 10715,13793 10691,13733 10691,13735 10676,13705 10678,13707 10658,13680 10658,13680 C 10653,13674 10654,13665 10662,13660 10667,13654 10676,13656 10682,13663 Z"/><path d="M 10468,13630 L 10468,13630 10521,13638 10515,13638 10568,13630 10568,13630 10623,13621 10675,13636 10675,13636 C 10682,13638 10686,13645 10684,13654 10682,13661 10675,13665 10665,13663 L 10665,13663 10618,13650 10625,13650 10574,13658 10517,13667 10462,13658 10462,13658 C 10455,13658 10449,13650 10451,13641 10451,13634 10459,13629 10468,13630 Z"/><path d="M 10656,13665 L 10656,13665 10698,13584 10697,13589 10706,13494 10706,13494 C 10708,13485 10715,13479 10722,13479 10731,13481 10737,13488 10735,13496 L 10735,13496 10726,13595 10684,13678 10684,13678 C 10680,13685 10671,13689 10664,13685 10656,13682 10653,13672 10656,13665 Z"/><path d="M 10730,13496 L 10730,13496 10687,13499 10643,13487 10576,13450 10576,13450 C 10568,13444 10565,13437 10568,13430 10574,13422 10581,13419 10589,13422 L 10589,13422 10656,13459 10654,13459 10693,13470 10687,13468 10728,13466 10728,13466 C 10737,13466 10742,13474 10742,13481 10744,13490 10737,13496 10730,13496 Z"/><path d="M 10717,13487 L 10717,13487 10770,13406 10768,13410 10804,13314 10804,13314 C 10806,13307 10815,13302 10822,13305 10829,13307 10835,13316 10831,13324 L 10831,13324 10795,13421 10741,13503 10741,13503 C 10737,13510 10728,13512 10720,13507 10713,13503 10711,13494 10717,13487 Z"/><path d="M 10802,13318 L 10802,13259 10802,13259 C 10802,13252 10809,13245 10817,13245 10826,13245 10831,13252 10831,13259 L 10831,13318 10831,13318 C 10831,13327 10826,13333 10817,13333 10809,13333 10802,13327 10802,13318 Z"/><path d="M 11263,13364 L 11263,13364 11313,13386 11359,13419 11401,13454 11399,13454 11441,13483 11441,13483 C 11448,13487 11450,13496 11445,13503 11441,13510 11432,13512 11425,13507 L 11425,13507 11382,13477 11340,13443 11342,13443 11298,13411 11300,13413 11251,13391 11251,13391 C 11243,13388 11240,13379 11243,13371 11247,13364 11256,13360 11263,13364 Z"/><path d="M 11111,13336 L 11111,13336 11150,13340 11186,13349 11186,13349 11223,13357 11221,13355 11258,13357 11258,13357 C 11265,13358 11273,13364 11271,13373 11271,13380 11263,13388 11256,13386 L 11256,13386 11218,13384 11181,13377 11144,13368 11146,13368 11110,13366 11110,13366 C 11102,13366 11095,13358 11095,13351 11097,13344 11102,13336 11111,13336 Z"/><path d="M 11245,13388 L 11245,13388 11205,13340 11207,13342 11159,13302 11159,13302 C 11154,13296 11152,13287 11157,13280 11163,13274 11172,13272 11179,13278 L 11179,13278 11227,13320 11269,13368 11269,13368 C 11273,13375 11273,13384 11267,13389 11260,13393 11251,13393 11245,13388 Z"/><path d="M 11591,13634 L 11591,13634 11622,13682 11630,13740 11617,13802 11597,13852 11597,13852 C 11593,13861 11586,13865 11576,13861 11569,13857 11566,13850 11569,13841 L 11569,13841 11589,13791 11589,13795 11600,13737 11598,13740 11593,13687 11597,13694 11567,13650 11567,13650 C 11562,13643 11564,13634 11571,13630 11578,13625 11587,13627 11591,13634 Z"/><path d="M 11593,13841 L 11593,13841 11613,13885 11620,13932 11620,13932 C 11622,13942 11617,13949 11609,13949 11600,13951 11593,13945 11593,13938 L 11593,13938 11586,13892 11586,13896 11566,13854 11566,13854 C 11562,13846 11566,13837 11573,13834 11580,13830 11589,13834 11593,13841 Z"/><path d="M 11578,13861 L 11520,13861 11520,13861 C 11512,13861 11505,13856 11505,13846 11505,13839 11512,13832 11520,13832 L 11578,13832 11578,13832 C 11587,13832 11593,13839 11593,13846 11593,13856 11587,13861 11578,13861 Z"/><path d="M 11593,13649 L 11593,13649 11580,13678 11562,13707 11562,13707 C 11558,13715 11549,13718 11544,13713 11536,13709 11533,13700 11536,13694 L 11536,13694 11553,13665 11553,13665 11566,13636 11566,13636 C 11569,13629 11578,13625 11586,13629 11593,13632 11597,13641 11593,13649 Z"/><path d="M 11379,13452 L 11379,13452 11419,13466 11419,13466 11463,13479 11489,13503 11507,13532 11507,13532 11547,13589 11544,13585 11573,13607 11591,13634 11591,13634 C 11597,13641 11595,13650 11587,13654 11580,13660 11571,13658 11567,13650 L 11567,13650 11551,13627 11555,13630 11525,13607 11483,13549 11465,13521 11467,13523 11445,13503 11450,13507 11410,13494 11370,13479 11370,13479 C 11362,13476 11357,13468 11360,13461 11362,13454 11371,13448 11379,13452 Z"/><path d="M 10654,13313 L 10684,13371 10684,13371 C 10687,13379 10684,13388 10676,13391 10669,13395 10660,13391 10656,13384 L 10627,13325 10627,13325 C 10623,13318 10627,13309 10634,13305 10642,13302 10651,13305 10654,13313 Z"/><path d="M 10631,13309 L 10660,13280 10660,13280 C 10665,13274 10675,13274 10680,13280 10686,13285 10686,13294 10680,13300 L 10651,13329 10651,13329 C 10645,13335 10636,13335 10631,13329 10625,13324 10625,13314 10631,13309 Z"/><path d="M 10219,13545 L 10219,13545 10233,13525 10252,13512 10252,13512 C 10259,13507 10268,13509 10272,13516 10277,13523 10275,13532 10268,13536 L 10268,13536 10252,13547 10255,13543 10242,13562 10242,13562 C 10237,13569 10228,13571 10222,13565 10215,13560 10213,13551 10219,13545 Z"/><path d="M 10246,13518 L 10246,13518 10268,13477 10301,13446 10338,13417 10338,13417 10372,13389 10418,13377 10418,13377 10460,13364 10460,13364 C 10468,13362 10477,13366 10479,13373 10481,13380 10477,13389 10470,13391 L 10470,13391 10427,13404 10383,13417 10389,13415 10358,13441 10319,13470 10321,13468 10290,13498 10292,13494 10272,13530 10272,13530 C 10268,13538 10259,13541 10253,13536 10246,13532 10242,13523 10246,13518 Z"/><path d="M 10158,13724 L 10158,13724 10180,13672 10221,13632 10221,13632 C 10226,13627 10235,13627 10241,13632 10246,13638 10246,13647 10241,13652 L 10241,13652 10202,13691 10206,13685 10186,13735 10186,13735 C 10182,13744 10175,13748 10166,13744 10158,13740 10155,13733 10158,13724 Z"/><path d="M 10219,13634 L 10219,13634 10242,13602 10275,13574 10312,13558 10312,13558 10351,13540 10347,13541 10393,13503 10393,13505 10415,13485 10448,13470 10488,13465 10486,13465 10519,13452 10519,13452 C 10526,13448 10534,13452 10537,13461 10541,13468 10535,13476 10528,13479 L 10528,13479 10495,13492 10455,13498 10459,13498 10429,13510 10433,13507 10413,13525 10365,13565 10325,13585 10290,13600 10294,13598 10263,13625 10264,13621 10242,13650 10242,13650 C 10237,13658 10228,13660 10222,13654 10215,13649 10213,13640 10219,13634 Z"/><path d="M 11175,13512 L 11175,13512 11201,13527 11197,13525 11229,13530 11227,13529 11260,13532 11289,13540 11289,13540 C 11298,13541 11302,13549 11300,13556 11298,13565 11291,13569 11284,13567 L 11284,13567 11254,13560 11256,13560 11225,13558 11190,13552 11161,13536 11161,13536 C 11155,13532 11152,13523 11157,13516 11161,13510 11170,13507 11175,13512 Z"/><path d="M 11282,13540 L 11282,13540 11315,13530 11311,13532 11337,13512 11337,13512 C 11342,13507 11351,13509 11357,13516 11360,13521 11360,13530 11353,13536 L 11353,13536 11326,13558 11291,13567 11291,13567 C 11282,13569 11274,13565 11273,13558 11271,13549 11274,13541 11282,13540 Z"/><path d="M 11296,13543 L 11296,13543 11331,13576 11344,13623 11338,13667 11326,13705 11326,13705 C 11324,13713 11315,13716 11307,13715 11300,13713 11295,13704 11298,13696 L 11298,13696 11311,13660 11309,13663 11313,13623 11315,13629 11304,13589 11307,13595 11276,13563 11276,13563 C 11271,13558 11271,13549 11276,13543 11282,13538 11291,13538 11296,13543 Z"/><path d="M 11329,13700 L 11329,13729 11329,13729 C 11329,13738 11324,13744 11315,13744 11307,13744 11300,13738 11300,13729 L 11300,13700 11300,13700 C 11300,13693 11307,13685 11315,13685 11324,13685 11329,13693 11329,13700 Z"/><path d="M 11315,13715 L 11344,13715 11344,13715 C 11353,13715 11359,13722 11359,13729 11359,13738 11353,13744 11344,13744 L 11315,13744 11315,13744 C 11307,13744 11300,13738 11300,13729 11300,13722 11307,13715 11315,13715 Z"/><path d="M 11315,13744 L 11285,13744 11285,13744 C 11278,13744 11271,13738 11271,13729 11271,13722 11278,13715 11285,13715 L 11315,13715 11315,13715 C 11324,13715 11329,13722 11329,13729 11329,13738 11324,13744 11315,13744 Z"/><path d="M 11300,13737 L 11300,13737 11285,13766 11271,13795 11271,13795 C 11267,13802 11258,13806 11251,13802 11243,13799 11240,13790 11243,13782 L 11243,13782 11258,13753 11273,13724 11273,13724 C 11276,13716 11285,13713 11293,13716 11300,13720 11304,13729 11300,13737 Z"/><path d="M 11013,13661 L 11013,13661 11027,13645 11047,13640 11047,13640 11077,13629 11077,13629 C 11084,13625 11091,13630 11095,13638 11099,13645 11093,13652 11086,13656 L 11086,13656 11056,13667 11040,13672 11045,13669 11033,13682 11033,13682 C 11027,13687 11018,13687 11013,13682 11007,13676 11007,13667 11013,13661 Z"/><path d="M 10985,13689 L 10985,13689 11002,13676 10998,13680 11011,13663 11011,13663 C 11016,13656 11025,13654 11031,13660 11038,13665 11040,13674 11035,13680 L 11035,13680 11020,13698 11002,13713 11002,13713 C 10996,13718 10987,13716 10981,13709 10976,13704 10978,13694 10985,13689 Z"/><path d="M 11003,13676 L 11003,13676 10991,13632 10983,13580 11018,13510 11055,13490 11100,13483 11137,13496 11135,13496 11172,13505 11172,13505 C 11181,13507 11185,13514 11183,13521 11181,13530 11174,13534 11166,13532 L 11166,13532 11128,13523 11095,13512 11102,13512 11062,13518 11066,13516 11036,13532 11044,13527 11013,13589 11013,13582 11018,13629 11018,13625 11031,13667 11031,13667 C 11033,13674 11029,13683 11022,13685 11014,13687 11005,13683 11003,13676 Z"/><path d="M 11165,13510 L 11165,13510 11196,13501 11192,13503 11219,13483 11219,13483 C 11225,13477 11234,13479 11240,13487 11245,13492 11243,13501 11236,13507 L 11236,13507 11207,13529 11174,13538 11174,13538 C 11165,13540 11157,13536 11155,13529 11154,13519 11157,13512 11165,13510 Z"/><path d="M 11326,13711 L 11296,13740 11296,13740 C 11291,13746 11282,13746 11276,13740 11271,13735 11271,13726 11276,13720 L 11306,13691 11306,13691 C 11311,13685 11320,13685 11326,13691 11331,13696 11331,13705 11326,13711 Z"/><path d="M 11476,13724 L 11476,13724 11490,13755 11490,13755 11505,13782 11505,13782 C 11509,13790 11505,13797 11498,13802 11490,13806 11481,13802 11478,13795 L 11478,13795 11463,13768 11448,13737 11448,13737 C 11445,13729 11448,13720 11456,13716 11463,13713 11472,13716 11476,13724 Z"/><path d="M 11095,13940 L 11095,13940 11078,13982 11078,13982 11066,14028 11066,14028 C 11064,14035 11056,14039 11047,14037 11040,14035 11036,14028 11038,14019 L 11038,14019 11051,13973 11067,13931 11067,13931 C 11071,13921 11078,13918 11086,13921 11095,13925 11099,13932 11095,13940 Z"/><path d="M 11051,14008 L 11110,14008 11110,14008 C 11119,14008 11124,14015 11124,14022 11124,14031 11119,14037 11110,14037 L 11051,14037 11051,14037 C 11044,14037 11036,14031 11036,14022 11036,14015 11044,14008 11051,14008 Z"/><path d="M 11058,14037 L 11058,14037 11011,14057 11014,14053 10974,14092 10974,14092 C 10969,14097 10959,14097 10954,14092 10948,14086 10948,14077 10954,14072 L 10954,14072 10996,14031 11045,14009 11045,14009 C 11053,14006 11062,14009 11066,14017 11069,14024 11066,14033 11058,14037 Z"/><path d="M 10616,14141 L 10616,14141 10614,14176 10594,14207 10594,14207 C 10590,14214 10581,14216 10574,14211 10567,14207 10565,14198 10570,14191 L 10570,14191 10589,14163 10585,14171 10587,14139 10587,14139 C 10589,14132 10596,14125 10603,14125 10611,14127 10618,14134 10616,14141 Z"/><path d="M 10519,14156 L 10519,14156 10565,14143 10565,14143 10607,14127 10607,14127 C 10614,14123 10622,14127 10625,14136 10629,14143 10625,14150 10616,14154 L 10616,14154 10574,14171 10528,14183 10528,14183 C 10519,14185 10512,14182 10510,14174 10508,14165 10512,14158 10519,14156 Z"/><path d="M 10600,14130 L 10600,14130 10627,14099 10662,14079 10693,14061 10689,14062 10715,14041 10744,14019 10784,14009 10784,14009 C 10792,14008 10800,14011 10802,14020 10804,14028 10800,14035 10790,14037 L 10790,14037 10753,14046 10759,14044 10733,14064 10735,14064 10708,14086 10676,14103 10678,14103 10645,14123 10647,14121 10622,14150 10622,14150 C 10618,14156 10609,14156 10601,14150 10596,14147 10596,14138 10600,14130 Z"/><path d="M 10777,14033 L 10777,14033 10763,14020 10746,14004 10746,14004 C 10742,13997 10742,13987 10748,13982 10753,13978 10764,13978 10768,13984 L 10768,13984 10783,14000 10783,13998 10797,14011 10797,14011 C 10804,14017 10804,14026 10797,14033 10794,14039 10784,14039 10777,14033 Z"/><path d="M 10757,14008 L 10698,14008 10698,14008 C 10691,14008 10684,14002 10684,13993 10684,13986 10691,13978 10698,13978 L 10757,13978 10757,13978 C 10766,13978 10772,13986 10772,13993 10772,14002 10766,14008 10757,14008 Z"/><path d="M 10742,13993 L 10742,13993 10742,13980 10742,13964 10742,13964 C 10742,13956 10750,13949 10757,13949 10766,13949 10772,13956 10772,13964 L 10772,13964 10772,13980 10772,13993 10772,13993 C 10772,14002 10766,14008 10757,14008 10750,14008 10742,14002 10742,13993 Z"/><path d="M 10784,14004 L 10784,14004 10828,13998 10826,13998 10872,13986 10941,13973 10939,13973 10967,13965 10963,13967 10985,13953 10985,13953 C 10992,13947 11002,13949 11005,13956 11011,13964 11009,13973 11002,13976 L 11002,13976 10978,13993 10947,14000 10877,14013 10879,14013 10833,14026 10790,14031 10790,14031 C 10781,14033 10773,14028 10773,14020 10772,14011 10777,14004 10784,14004 Z"/><path d="M 10980,13958 L 10980,13958 11013,13900 11040,13874 11077,13863 11077,13863 C 11084,13859 11093,13865 11095,13872 11097,13879 11093,13889 11086,13890 L 11086,13890 11053,13901 11058,13898 11035,13920 11036,13916 11005,13971 11005,13971 C 11002,13978 10992,13982 10987,13976 10980,13973 10976,13964 10980,13958 Z"/><path d="M 10992,13943 L 10992,13943 11016,13942 11013,13943 11035,13936 11035,13936 11056,13929 11080,13925 11080,13925 C 11088,13925 11095,13931 11095,13940 11097,13947 11091,13954 11082,13954 L 11082,13954 11060,13956 11064,13956 11044,13964 11020,13971 10994,13973 10994,13973 C 10987,13975 10980,13967 10978,13960 10978,13953 10983,13945 10992,13943 Z"/><path d="M 11077,13921 L 11077,13921 11119,13911 11119,13911 11168,13896 11168,13896 11267,13857 11265,13857 11289,13846 11285,13850 11316,13817 11355,13781 11381,13773 11403,13770 11397,13771 11432,13751 11428,13755 11450,13722 11450,13722 C 11454,13715 11463,13713 11470,13718 11478,13722 11479,13731 11474,13738 L 11474,13738 11450,13773 11410,13797 11388,13801 11390,13801 11368,13808 11373,13804 11337,13837 11337,13837 11304,13872 11278,13885 11177,13923 11128,13938 11084,13949 11084,13949 C 11077,13951 11069,13947 11067,13938 11066,13931 11069,13923 11077,13921 Z"/><path d="M 11446,13729 L 11446,13671 11446,13671 C 11446,13663 11454,13656 11461,13656 11470,13656 11476,13663 11476,13671 L 11476,13729 11476,13729 C 11476,13738 11470,13744 11461,13744 11454,13744 11446,13738 11446,13729 Z"/><path d="M 10387,13837 L 10387,13837 10453,13898 10449,13894 10488,13912 10484,13912 10526,13921 10526,13921 C 10534,13923 10539,13931 10537,13938 10535,13945 10528,13951 10521,13949 L 10521,13949 10477,13940 10435,13920 10367,13857 10367,13857 C 10362,13852 10362,13843 10367,13837 10372,13832 10382,13832 10387,13837 Z"/><path d="M 10347,13832 L 10376,13832 10376,13832 C 10385,13832 10391,13839 10391,13846 10391,13856 10385,13861 10376,13861 L 10347,13861 10347,13861 C 10340,13861 10332,13856 10332,13846 10332,13839 10340,13832 10347,13832 Z"/><path d="M 10371,13834 L 10371,13834 10400,13821 10400,13821 10429,13804 10429,13804 C 10435,13801 10444,13804 10448,13812 10453,13817 10449,13826 10442,13830 L 10442,13830 10413,13848 10383,13861 10383,13861 C 10376,13865 10367,13861 10363,13854 10360,13846 10363,13837 10371,13834 Z"/><path d="M 11690,13921 L 11690,13921 11710,13911 11703,13918 11712,13900 11712,13900 C 11716,13892 11725,13889 11732,13892 11740,13896 11744,13905 11740,13912 L 11740,13912 11728,13934 11703,13947 11703,13947 C 11696,13953 11688,13949 11683,13942 11679,13934 11683,13927 11690,13921 Z"/><path d="M 11203,13951 L 11203,13951 11252,13965 11249,13964 11300,13967 11300,13967 11404,13969 11404,13969 C 11412,13971 11419,13976 11417,13986 11417,13993 11412,14000 11403,13998 L 11403,13998 11298,13997 11245,13993 11194,13978 11194,13978 C 11186,13976 11183,13967 11185,13960 11186,13953 11194,13949 11203,13951 Z"/><path d="M 11392,14004 L 11392,14004 11379,13989 11381,13989 11364,13975 11364,13975 C 11359,13971 11359,13960 11362,13954 11368,13949 11377,13949 11384,13953 L 11384,13953 11401,13969 11414,13984 11414,13984 C 11419,13991 11419,14000 11414,14004 11406,14009 11397,14009 11392,14004 Z"/><path d="M 11410,13971 L 11410,13971 11461,13993 11456,13993 11533,14002 11533,14000 11576,14004 11575,14004 11613,14002 11606,14006 11657,13973 11653,13976 11685,13927 11685,13927 C 11688,13920 11697,13918 11705,13923 11710,13927 11714,13936 11708,13943 L 11708,13943 11675,13995 11619,14031 11575,14033 11531,14030 11450,14020 11397,13998 11397,13998 C 11390,13995 11386,13986 11390,13978 11393,13971 11403,13967 11410,13971 Z"/><path d="M 11681,13934 L 11681,13876 11681,13876 C 11681,13868 11688,13861 11696,13861 11705,13861 11710,13868 11710,13876 L 11710,13934 11710,13934 C 11710,13943 11705,13949 11696,13949 11688,13949 11681,13943 11681,13934 Z"/><path d="M 11285,14359 L 11285,14359 11342,14359 11404,14359 11465,14359 11520,14359 11520,14359 C 11529,14359 11534,14366 11534,14374 11534,14383 11529,14388 11520,14388 L 11520,14388 11465,14388 11404,14388 11342,14388 11285,14388 11285,14388 C 11278,14388 11271,14383 11271,14374 11271,14366 11278,14359 11285,14359 Z"/><path d="M 11236,14363 L 11236,14363 11265,14383 11262,14381 11291,14390 11291,14390 C 11298,14392 11302,14401 11300,14409 11298,14416 11289,14420 11282,14418 L 11282,14418 11251,14409 11219,14387 11219,14387 C 11212,14383 11210,14374 11216,14366 11219,14359 11229,14357 11236,14363 Z"/><path d="M 11197,14388 L 11256,14388 11256,14388 C 11265,14388 11271,14396 11271,14403 11271,14412 11265,14418 11256,14418 L 11197,14418 11197,14418 C 11190,14418 11183,14412 11183,14403 11183,14396 11190,14388 11197,14388 Z"/></g></g></g></g></svg>