<?xml version="1.0" encoding="UTF-8" standalone="no"?>
<svg
   xmlns:dc="http://purl.org/dc/elements/1.1/"
   xmlns:cc="http://creativecommons.org/ns#"
   xmlns:rdf="http://www.w3.org/1999/02/22-rdf-syntax-ns#"
   xmlns:svg="http://www.w3.org/2000/svg"
   xmlns="http://www.w3.org/2000/svg"
   xmlns:sodipodi="http://sodipodi.sourceforge.net/DTD/sodipodi-0.dtd"
   xmlns:inkscape="http://www.inkscape.org/namespaces/inkscape"
   version="1.1"
   viewBox="0 0 21590 27940"
   preserveAspectRatio="xMidYMid"
   fill-rule="evenodd"
   id="svg2"
   inkscape:version="0.47 r22583"
   width="100%"
   height="100%"
   sodipodi:docname="2.svg">
  <metadata
     id="metadata32">
    <rdf:RDF>
      <cc:Work
         rdf:about="">
        <dc:format>image/svg+xml</dc:format>
        <dc:type
           rdf:resource="http://purl.org/dc/dcmitype/StillImage" />
        <dc:title></dc:title>
      </cc:Work>
    </rdf:RDF>
  </metadata>
  <sodipodi:namedview
     pagecolor="#ffffff"
     bordercolor="#666666"
     borderopacity="1"
     objecttolerance="10"
     gridtolerance="10"
     guidetolerance="10"
     inkscape:pageopacity="0"
     inkscape:pageshadow="2"
     inkscape:window-width="1280"
     inkscape:window-height="968"
     id="namedview28"
     showgrid="false"
     inkscape:zoom="12.484326"
     inkscape:cx="19.999939"
     inkscape:cy="20.073018"
     inkscape:window-x="-4"
     inkscape:window-y="-4"
     inkscape:window-maximized="1"
     inkscape:current-layer="page1">
    <sodipodi:guide
       position="0,0"
       orientation="0,21590"
       id="guide2840" />
    <sodipodi:guide
       position="21590,0"
       orientation="-27940,0"
       id="guide2842" />
    <sodipodi:guide
       position="21590,27940"
       orientation="0,-21590"
       id="guide2844" />
    <sodipodi:guide
       position="0,27940"
       orientation="27940,0"
       id="guide2846" />
  </sodipodi:namedview>
  <g
     visibility="visible"
     id="Default">
    <desc
       id="desc5">Master slide</desc>
    <g
       style="stroke:none;fill:none"
       id="g7">
      <rect
         x="986"
         y="986"
         width="19620"
         height="25970"
         id="rect9" />
    </g>
  </g>
  <g
     visibility="visible"
     id="page1"
     transform="matrix(5.7637711,0,0,6.4582074,-23001.819,-26305.882)"
     style="visibility:visible">
    <desc
       id="desc12">Slide</desc>
    <g
       id="g18"
       transform="matrix(0.00121699,0,0,0.00116823,3986.8947,8388.744)">
      <g
         id="g20"
         style="fill:#9b0000;stroke:none">
        <path
           id="path22"
           d="m 5471,5382 c 39,-239 -359,-112 -382,-7 -17,81 -59,535 -107,650 -272,407 -96,931 177,940 157,192 807,241 877,254 111,18 627,86 746,95 536,37 527,-204 527,-284 0,-82 -22,-368 -88,-510 -23,-51 -126,-316 -253,-404 -17,-53 -198,-288 -538,-292 89,-26 141,-22 223,-26 82,-5 105,-290 -10,-300 -114,-10 -645,42 -720,68 8,-48 97,-119 138,-110 2,11 9,26 12,40 13,47 427,-26 404,-118 -45,-196 -241,-256 -280,-282 -43,-28 -12,-174 -12,-189 0,-39 -140,-41 -162,-25 13,-56 -176,-73 -182,-18 -12,68 -12,101 -14,162 -7,-19 -35,-70 -50,-96 -25,-53 -242,26 -219,64 30,61 94,149 63,201 -33,53 -122,106 -150,187 z" />
      </g>
      <g
         id="g24"
         style="fill:#ff6600;stroke:#ff6600;stroke-width:137.46250916">
        <path
           style="stroke-width:137.46250916"
           id="path26"
           d="m 5459,5439 -9,-129 4,6 -35,-43 6,5 -58,-19 9,0 -71,4 5,0 -74,18 4,-2 -66,31 2,-2 -50,37 5,-3 -25,40 0,-4 -9,46 0,-1 -8,73 -12,92 0,0 -12,101 -17,104 0,0 -14,97 -17,80 -19,60 -82,157 0,-1 -43,160 0,-2 -10,157 0,-1 20,145 0,-3 45,126 0,-1 67,100 -2,-1 39,38 -2,-2 45,28 -4,-1 48,18 -5,0 55,8 84,69 -3,-1 114,51 -2,0 134,42 -2,0 141,32 -2,0 142,25 0,0 121,16 0,0 93,12 0,0 31,3 21,4 59,9 0,0 87,12 107,15 0,0 118,15 115,15 0,0 109,13 89,11 0,0 62,6 -2,-2 94,3 -1,0 80,-1 -2,1 133,-20 -4,0 95,-35 -5,4 62,-45 -4,3 37,-52 0,2 19,-52 -2,3 6,-46 0,0 0,-37 0,2 -2,-40 -2,-54 0,0 -7,-66 0,0 -8,-73 3,2 -30,-150 0,0 -18,-69 0,2 -22,-60 0,0 -13,-28 -19,-44 0,0 -25,-55 0,0 -30,-61 0,2 -76,-122 2,1 -44,-53 0,2 -48,-41 -15,-31 0,2 -28,-41 2,2 -46,-47 0,1 -60,-50 2,1 -74,-47 2,0 -91,-41 5,1 -105,-27 2,0 -192,-20 131,-28 55,-9 111,-6 -8,4 28,-14 -5,5 20,-35 0,4 15,-47 -3,2 7,-54 0,2 -4,-55 2,1 -15,-47 0,3 -25,-36 8,5 -37,-15 7,1 -60,0 2,0 -91,4 0,0 -107,7 0,0 -118,11 2,0 -112,12 0,0 -104,12 0,0 -80,13 1,0 -77,18 28,-64 44,-40 47,-30 55,-9 17,51 -6,-7 23,12 -9,-3 49,2 -1,1 68,-6 -2,0 74,-14 -2,0 74,-21 -2,0 64,-26 -5,3 42,-31 -4,6 11,-33 0,5 -24,-68 0,4 -35,-57 3,2 -42,-46 2,1 -43,-35 0,1 -84,-50 2,0 -34,-15 -24,-14 -15,-18 -10,-28 -1,-62 5,-58 0,0 3,-22 3,-12 0,7 -6,-13 5,5 -17,-11 8,3 -50,-9 3,0 -56,-1 6,0 -53,13 -7,-33 3,4 -17,-15 9,4 -62,-15 5,0 -65,3 8,-1 -22,12 5,-5 -10,17 0,-4 -6,46 0,0 -4,37 0,0 -2,37 0,0 -4,113 -37,-88 0,0 -12,-26 0,1 -17,-28 -13,-24 3,5 -17,-14 10,3 -30,-3 5,0 -81,15 6,-1 -70,32 5,-4 -20,19 3,-6 -3,15 0,-4 27,50 0,-2 30,55 18,57 -10,49 -35,43 -43,42 0,0 -44,48 2,-4 -59,110 z m 28,-119 46,-48 43,-43 0,0 32,-40 -1,4 8,-44 0,5 -17,-53 0,1 -28,-54 -29,-51 4,-23 23,-23 74,-34 88,-16 38,4 24,18 13,25 0,0 17,29 13,26 7,19 -32,4 2,-41 2,-37 4,-38 9,-49 12,-21 30,-16 75,-4 68,18 23,20 3,23 -20,-9 37,-11 62,1 53,11 24,15 10,19 -5,14 0,-2 -2,21 -6,58 0,-1 3,60 0,-2 8,24 -3,-4 13,15 -5,-3 22,12 0,0 32,15 87,52 45,36 42,48 37,58 24,70 -12,40 -47,35 -67,28 -76,21 -76,14 -71,6 -55,-2 -32,-17 -13,-44 18,9 -37,6 8,-1 -43,27 2,-2 -39,36 2,-3 -19,40 -20,-16 47,-10 82,-12 104,-13 114,-12 119,-10 107,-10 91,-3 65,0 44,20 29,40 14,48 5,59 -7,55 -14,48 -23,38 -37,17 -113,5 2,0 -54,7 2,0 -59,13 -2,-22 119,12 109,28 94,42 75,49 62,51 45,48 31,42 15,29 -2,-5 46,42 45,55 76,121 32,63 25,55 18,44 0,0 12,28 23,60 19,70 28,150 9,74 6,66 2,53 0,0 2,40 0,39 -7,47 -18,53 -39,55 -65,48 -99,37 -138,19 -82,1 -96,-2 -63,-7 -89,-11 0,0 -109,-11 -116,-16 -117,-15 -107,-15 -86,-13 -60,-9 0,0 -21,-2 0,0 -31,-4 -93,-12 -122,-17 -143,-24 -142,-32 -136,-43 -117,-53 -81,-69 8,4 -51,-8 -52,-20 -47,-30 -42,-40 -67,-104 -46,-128 -23,-147 10,-160 47,-162 82,-157 0,2 18,-59 0,0 17,-80 0,1 14,-95 17,-104 -2,0 12,-101 13,-92 0,0 10,-73 8,-48 27,-44 52,-39 69,-32 79,-19 76,-4 66,21 39,49 4,77 -31,-5 31,-57 z" />
      </g>
    </g>
  </g>
</svg>
