<?xml version="1.0" encoding="UTF-8"?>
<!DOCTYPE svg PUBLIC "-//W3C//DTD SVG 1.1//EN" "http://www.w3.org/Graphics/SVG/1.1/DTD/svg11.dtd"><svg version="1.1" viewBox="0 0 21590 27940" preserveAspectRatio="xMidYMid" fill-rule="evenodd" xmlns="http://www.w3.org/2000/svg" xmlns:xlink="http://www.w3.org/1999/xlink"><g visibility="visible" id="Default"><desc>Master slide</desc><g style="stroke:none;fill:none"><rect x="986" y="986" width="19620" height="25970"/></g></g><g visibility="visible" id="page1"><desc>Slide</desc><g><desc>Graphic</desc><g><g style="stroke:none;fill:rgb(255,245,238)"><path d="M 16573,10579 C 16360,9825 17096,10217 16999,10898 17380,11094 18250,11662 18242,11828 18242,11941 18224,11931 18127,12013 18029,12157 17976,12178 17736,12230 17869,12270 17700,12292 17630,12302 17425,12302 17203,12385 16741,12395 16510,12405 16465,12694 16067,12880 15934,12941 16075,13127 16315,13179 16537,13148 16723,13189 16812,13251 16839,13272 16670,13272 16599,13261 16643,13282 16848,13354 16812,13375 16794,13395 16528,13344 16465,13334 16564,13385 16750,13437 16688,13457 16617,13498 16395,13405 16360,13405 16413,13467 16501,13529 16484,13529 16324,13518 16102,13478 15978,13334 15782,13106 15348,13251 15135,12941 14931,13251 15517,13158 15534,13272 15498,13292 15365,13261 15339,13261 15374,13272 15428,13324 15419,13334 15383,13354 15259,13312 15215,13292 15232,13324 15303,13395 15285,13395 15268,13395 15171,13344 15143,13324 15152,13344 15205,13405 15188,13405 15011,13375 14851,13219 14815,12952 14566,12890 13626,12859 13111,13138 13182,13344 13519,13302 13777,13334 14016,13354 14105,13478 14096,13509 14087,13529 13813,13395 13795,13405 13847,13437 13990,13571 13963,13581 13927,13591 13759,13447 13733,13457 13795,13498 13883,13611 13847,13622 13830,13633 13679,13488 13653,13498 13715,13540 13759,13664 13733,13664 13608,13560 13644,13611 13395,13571 13271,13457 12552,13324 12604,13055 12524,13034 12444,13013 12392,13034 12364,13219 12809,13324 12897,13427 12888,13427 12632,13312 12613,13312 12666,13344 12800,13427 12773,13437 12746,13437 12542,13324 12516,13324 12552,13364 12632,13457 12613,13467 12569,13467 12463,13364 12427,13364 12472,13427 12542,13509 12524,13478 12339,13437 12196,13241 12072,12973 11805,13076 11575,13168 11513,12714 10741,12993 10590,14036 11140,14468 11620,14850 11939,14768 12463,14583 13795,14098 14434,13395 15889,13747 15437,13696 14966,13727 14292,13995 13128,14448 11965,15366 11131,14738 10385,14181 10483,13116 11149,12560 11575,12199 11645,11466 12054,10929 12356,10527 12995,9825 14087,10073 15205,10331 15321,10743 15907,10949 15924,10052 16474,10496 16573,10579 Z"/></g><g style="stroke:rgb(255,102,0);fill:rgb(255,102,0)"><path d="M 16578,10572 L 16566,10582 16537,10453 16526,10349 16534,10267 16557,10210 16594,10173 16639,10160 16691,10167 16746,10192 16802,10235 16856,10293 16907,10366 16950,10451 16985,10549 17007,10657 17015,10774 17006,10899 17002,10890 17080,10932 17165,10980 17260,11035 17359,11095 17566,11229 17772,11368 17868,11438 17958,11507 18039,11571 18109,11634 18168,11693 18213,11743 18240,11789 18250,11827 18248,11866 18246,11896 18227,11938 18212,11956 18190,11973 18165,11994 18165,11994 18132,12021 18134,12019 18097,12068 18064,12107 18028,12139 17988,12165 17942,12185 17886,12203 17819,12221 17738,12239 17738,12222 17760,12230 17776,12237 17787,12244 17795,12257 17785,12276 17762,12286 17731,12294 17696,12301 17662,12306 17631,12311 17553,12314 17553,12314 17471,12324 17472,12324 17382,12337 17382,12337 17284,12353 17172,12370 17047,12385 16904,12397 16742,12404 16743,12404 16664,12419 16666,12419 16599,12457 16600,12456 16536,12511 16537,12510 16472,12579 16400,12654 16312,12735 16262,12774 16204,12814 16141,12853 16071,12889 16071,12889 16049,12902 16050,12901 16035,12916 16036,12913 16026,12932 16027,12928 16023,12947 16023,12944 16031,12987 16030,12984 16058,13029 16057,13026 16102,13072 16101,13072 16161,13113 16159,13112 16233,13146 16232,13146 16317,13171 16315,13170 16397,13161 16475,13159 16548,13162 16615,13172 16676,13185 16731,13201 16778,13220 16819,13245 16824,13263 16802,13272 16776,13275 16743,13277 16666,13275 16630,13273 16599,13270 16602,13253 16625,13263 16625,13263 16659,13277 16739,13310 16775,13327 16805,13345 16824,13363 16819,13382 16809,13387 16795,13389 16759,13387 16711,13383 16654,13375 16596,13365 16596,13365 16543,13356 16496,13348 16465,13343 16469,13326 16509,13345 16509,13345 16553,13364 16553,13364 16599,13382 16640,13400 16675,13414 16699,13430 16711,13449 16702,13460 16691,13466 16656,13476 16612,13475 16561,13468 16510,13456 16460,13441 16414,13428 16414,13428 16380,13417 16380,13417 16359,13414 16365,13398 16410,13444 16409,13444 16453,13484 16453,13484 16471,13499 16485,13513 16496,13525 16488,13540 16354,13524 16216,13490 16149,13465 16084,13432 16025,13391 15973,13342 15934,13304 15935,13304 15890,13272 15892,13273 15792,13228 15793,13228 15680,13200 15680,13200 15562,13177 15442,13151 15327,13111 15272,13082 15221,13045 15172,13001 15130,12948 15142,12947 15113,13001 15113,12999 15100,13044 15100,13040 15102,13077 15101,13074 15116,13104 15115,13100 15139,13125 15137,13124 15171,13145 15170,13145 15210,13160 15209,13160 15253,13172 15253,13172 15348,13192 15348,13192 15438,13208 15476,13218 15507,13230 15530,13247 15547,13278 15519,13287 15492,13288 15433,13283 15375,13274 15375,13274 15353,13271 15353,13271 15339,13270 15343,13253 15371,13268 15400,13291 15422,13315 15427,13327 15427,13342 15403,13347 15379,13347 15319,13337 15258,13319 15233,13309 15233,13309 15213,13301 15222,13287 15243,13316 15242,13316 15269,13351 15291,13380 15298,13394 15288,13405 15275,13402 15257,13397 15215,13376 15171,13353 15154,13340 15140,13331 15150,13319 15164,13340 15164,13339 15182,13367 15198,13392 15201,13409 15190,13416 15120,13397 15057,13368 14997,13327 14943,13274 14896,13211 14857,13135 14828,13050 14808,12954 14814,12960 14759,12949 14759,12949 14691,12940 14691,12940 14610,12932 14610,12932 14516,12925 14516,12925 14413,12920 14413,12920 14303,12919 14304,12919 14186,12920 14186,12920 14064,12926 14064,12926 13812,12949 13813,12949 13562,12991 13562,12991 13439,13020 13440,13020 13324,13056 13324,13056 13214,13097 13215,13097 13114,13146 13118,13134 13134,13170 13133,13168 13156,13198 13154,13197 13213,13244 13212,13243 13287,13274 13287,13274 13375,13293 13374,13292 13473,13304 13473,13304 13576,13310 13576,13310 13679,13316 13778,13324 13862,13338 13933,13357 13989,13382 14035,13411 14068,13439 14090,13467 14103,13490 14105,13515 14093,13521 14081,13518 14046,13509 14000,13491 13947,13470 13894,13448 13894,13448 13847,13429 13847,13429 13811,13417 13812,13417 13800,13414 13802,13414 13795,13414 13799,13398 13823,13414 13852,13438 13915,13495 13941,13524 13962,13549 13975,13571 13969,13591 13942,13587 13913,13573 13878,13552 13842,13528 13804,13503 13805,13503 13773,13482 13773,13483 13746,13469 13748,13469 13732,13466 13738,13450 13788,13491 13833,13545 13849,13572 13861,13596 13864,13617 13850,13633 13833,13629 13810,13614 13781,13592 13749,13569 13717,13544 13717,13544 13688,13523 13688,13524 13665,13510 13667,13510 13652,13507 13658,13491 13681,13510 13702,13536 13734,13592 13743,13619 13747,13642 13747,13664 13734,13675 13689,13640 13689,13640 13659,13618 13660,13619 13636,13608 13636,13608 13609,13603 13610,13603 13579,13600 13535,13597 13476,13591 13438,13587 13393,13580 13361,13558 13362,13559 13320,13536 13321,13536 13270,13513 13270,13513 13210,13490 13144,13463 13144,13463 13074,13438 12931,13380 12861,13348 12795,13315 12735,13279 12684,13241 12642,13199 12611,13154 12596,13106 12597,13055 12603,13064 12544,13049 12544,13049 12487,13038 12488,13038 12436,13034 12437,13034 12393,13044 12399,13034 12399,13068 12399,13066 12410,13099 12409,13096 12427,13126 12426,13125 12452,13153 12451,13152 12484,13180 12484,13180 12522,13206 12521,13205 12604,13253 12604,13253 12695,13298 12781,13340 12820,13361 12853,13380 12882,13401 12927,13444 12891,13435 12882,13431 12850,13417 12850,13417 12807,13400 12757,13378 12706,13357 12706,13357 12662,13339 12662,13339 12629,13326 12630,13326 12612,13321 12617,13304 12640,13318 12668,13336 12728,13376 12753,13394 12773,13412 12785,13429 12778,13448 12754,13441 12723,13428 12683,13410 12641,13390 12599,13368 12599,13368 12560,13351 12561,13351 12531,13337 12532,13337 12515,13332 12522,13318 12554,13356 12592,13401 12606,13424 12617,13441 12625,13459 12618,13478 12592,13471 12568,13460 12513,13424 12461,13387 12462,13389 12441,13377 12443,13377 12426,13373 12433,13358 12470,13406 12470,13406 12505,13450 12505,13450 12519,13466 12519,13466 12529,13476 12527,13475 12532,13478 12521,13490 12517,13483 12523,13487 12455,13465 12389,13428 12327,13378 12270,13317 12215,13246 12163,13165 12113,13075 12066,12978 12074,12982 11977,13019 11883,13049 11795,13065 11715,13061 11679,13050 11643,13030 11612,13003 11583,12966 11558,12920 11537,12863 11519,12795 11506,12716 11515,12723 11378,12784 11379,12784 11257,12861 11257,12860 11149,12951 11150,12949 11057,13052 11058,13050 10980,13164 10980,13164 10917,13283 10918,13282 10871,13408 10871,13406 10838,13536 10838,13536 10822,13669 10822,13667 10820,13798 10820,13796 10834,13925 10834,13924 10865,14049 10865,14048 10911,14167 10910,14166 10973,14276 10972,14274 11050,14375 11049,14374 11144,14462 11144,14462 11233,14528 11232,14528 11317,14584 11317,14583 11399,14629 11398,14629 11478,14665 11478,14665 11557,14694 11556,14694 11633,14714 11632,14714 11709,14725 11709,14724 11785,14730 11784,14730 11941,14719 11940,14721 12101,14689 12101,14689 12274,14639 12273,14639 12461,14575 12461,14575 12703,14482 12703,14482 12930,14386 12930,14386 13146,14288 13145,14288 13352,14191 13352,14191 13552,14095 13746,14005 13937,13921 14128,13843 14320,13777 14515,13721 14717,13680 14927,13652 15147,13643 15380,13652 15627,13685 15951,13751 15950,13762 15719,13740 15719,13740 15543,13736 15544,13736 15363,13742 15363,13742 15175,13760 15176,13760 14976,13794 14976,13794 14764,13844 14765,13844 14538,13914 14538,13914 14295,14003 14295,14003 14077,14093 14077,14093 13859,14192 13860,14192 13427,14399 13427,14399 13214,14503 13002,14604 12795,14697 12591,14781 12390,14851 12193,14908 12000,14943 11814,14959 11723,14958 11633,14950 11544,14936 11457,14913 11372,14884 11288,14846 11207,14801 11127,14745 10996,14635 10886,14513 10793,14383 10719,14246 10664,14101 10627,13953 10606,13802 10603,13649 10618,13495 10647,13344 10693,13196 10755,13052 10830,12914 10922,12785 11026,12662 11144,12553 11144,12553 11221,12481 11221,12482 11289,12402 11288,12402 11350,12315 11350,12316 11408,12223 11408,12223 11510,12022 11509,12023 11601,11808 11601,11808 11694,11582 11794,11357 11850,11244 11910,11135 11975,11028 12049,10924 12110,10845 12179,10762 12255,10674 12341,10584 12436,10496 12538,10410 12650,10326 12771,10249 12901,10180 13041,10120 13191,10073 13350,10038 13519,10016 13700,10013 13889,10028 14089,10065 14191,10089 14288,10115 14465,10167 14623,10224 14764,10282 14890,10341 15004,10402 15106,10462 15200,10524 15289,10584 15373,10643 15373,10643 15538,10755 15537,10754 15621,10806 15621,10806 15710,10856 15709,10856 15804,10900 15804,10900 15910,10942 15899,10949 15902,10869 15910,10795 15918,10730 15930,10670 15960,10572 15998,10497 16045,10442 16097,10408 16152,10392 16210,10387 16268,10397 16326,10415 16434,10468 16480,10498 16522,10527 16554,10552 16578,10572 Z M 16545,10566 L 16545,10566 16513,10542 16513,10542 16472,10512 16473,10514 16427,10485 16427,10485 16320,10432 16321,10432 16264,10414 16265,10414 16209,10405 16210,10405 16154,10408 16157,10408 16102,10425 16103,10424 16053,10457 16055,10456 16010,10508 16011,10507 15973,10581 15974,10579 15944,10676 15944,10675 15933,10733 15933,10733 15924,10798 15924,10797 15918,10870 15918,10870 15914,10962 15800,10917 15703,10872 15614,10823 15530,10769 15365,10657 15280,10599 15280,10599 15193,10538 15193,10538 15099,10478 15099,10479 14997,10418 14997,10418 14884,10358 14884,10358 14758,10299 14759,10299 14618,10240 14618,10240 14460,10185 14460,10185 14284,10132 14285,10132 14189,10106 14189,10106 14087,10081 14087,10081 13887,10046 13888,10046 13699,10031 13700,10031 13520,10034 13520,10034 13352,10054 13353,10054 13194,10089 13195,10089 13046,10137 13046,10137 12907,10197 12908,10197 12778,10266 12778,10266 12657,10342 12659,10341 12546,10424 12546,10424 12444,10511 12444,10511 12350,10599 12351,10598 12266,10686 12266,10686 12189,10774 12189,10774 12121,10858 12121,10858 12060,10936 12061,10936 11988,11039 11988,11038 11922,11145 11922,11145 11862,11254 11862,11253 11808,11365 11809,11365 11708,11590 11708,11590 11616,11816 11523,12031 11420,12233 11362,12326 11300,12415 11231,12495 11154,12568 11036,12677 11037,12676 10932,12797 10933,12797 10843,12926 10843,12925 10768,13061 10769,13060 10708,13204 10708,13203 10662,13350 10662,13348 10632,13498 10632,13497 10618,13649 10618,13649 10621,13801 10621,13800 10641,13950 10641,13948 10678,14095 10678,14095 10733,14238 10732,14237 10806,14373 10806,14372 10897,14501 10896,14501 11007,14622 11006,14621 11136,14731 11136,14731 11215,14785 11214,14784 11295,14829 11294,14829 11377,14867 11377,14867 11462,14897 11461,14897 11548,14919 11548,14919 11635,14933 11634,14932 11724,14940 11724,14940 11814,14941 11813,14941 11999,14925 11999,14927 12190,14891 12190,14891 12386,14835 12385,14835 12586,14764 12586,14764 12791,14680 12791,14680 12997,14587 12996,14587 13207,14486 13207,14486 13421,14382 13853,14175 14072,14076 14290,13987 14534,13897 14761,13828 14973,13777 15173,13743 15362,13723 15543,13718 15720,13723 15890,13738 15889,13756 15624,13702 15626,13702 15379,13671 15379,13671 15147,13661 15148,13661 14928,13671 14928,13671 14719,13696 14720,13696 14518,13738 14518,13738 14324,13794 14325,13794 14133,13860 14133,13860 13942,13937 13942,13937 13751,14022 13751,14022 13557,14112 13558,14112 13358,14207 13151,14305 12935,14402 12707,14499 12466,14592 12278,14656 12104,14706 11941,14738 11784,14747 11708,14742 11630,14731 11552,14711 11473,14683 11392,14645 11310,14599 11224,14542 11136,14476 11040,14388 10960,14286 10897,14175 10851,14055 10820,13929 10804,13798 10806,13666 10823,13532 10857,13401 10903,13274 10967,13153 11046,13039 11140,12936 11249,12845 11372,12767 11519,12703 11534,12791 11534,12790 11551,12858 11551,12856 11572,12913 11571,12911 11595,12956 11594,12955 11622,12991 11622,12990 11651,13015 11651,13014 11684,13033 11683,13033 11719,13045 11717,13044 11795,13047 11793,13048 11880,13033 11879,13033 11972,13002 11972,13002 12075,12963 12125,13066 12125,13065 12175,13154 12175,13154 12228,13235 12226,13234 12281,13304 12281,13304 12337,13365 12336,13364 12397,13413 12396,13412 12461,13448 12460,13448 12530,13471 12546,13509 12519,13490 12508,13478 12495,13463 12459,13419 12406,13350 12446,13361 12469,13372 12522,13409 12521,13409 12574,13444 12574,13444 12597,13455 12596,13455 12615,13459 12606,13463 12609,13456 12609,13463 12603,13450 12604,13451 12594,13433 12594,13433 12580,13412 12580,13413 12544,13368 12544,13368 12492,13309 12536,13320 12566,13334 12605,13351 12648,13373 12647,13373 12689,13393 12689,13393 12728,13411 12728,13411 12759,13424 12757,13424 12775,13429 12766,13433 12769,13427 12770,13437 12762,13424 12763,13425 12744,13409 12744,13409 12719,13391 12719,13391 12660,13351 12661,13351 12633,13334 12633,13335 12555,13289 12555,13289 12633,13309 12667,13323 12711,13340 12762,13362 12812,13383 12812,13383 12855,13401 12887,13414 12887,13414 12895,13417 12894,13417 12900,13419 12893,13435 12872,13416 12873,13416 12845,13395 12846,13397 12813,13377 12813,13377 12774,13357 12774,13357 12689,13315 12597,13270 12514,13222 12475,13195 12442,13167 12415,13138 12395,13105 12384,13071 12384,13028 12436,13017 12489,13020 12546,13033 12613,13048 12611,13105 12611,13102 12626,13148 12625,13145 12654,13188 12653,13186 12694,13226 12693,13226 12744,13264 12743,13263 12802,13298 12802,13298 12867,13331 12866,13331 12936,13363 12936,13363 13078,13421 13078,13421 13149,13447 13214,13473 13274,13496 13326,13520 13368,13542 13399,13564 13396,13563 13440,13570 13439,13569 13476,13573 13476,13573 13536,13579 13536,13579 13579,13583 13579,13583 13612,13586 13640,13591 13666,13603 13698,13625 13738,13656 13729,13656 13736,13651 13732,13657 13732,13643 13733,13646 13728,13625 13728,13625 13719,13599 13720,13602 13689,13548 13690,13549 13670,13524 13671,13525 13622,13483 13671,13494 13695,13507 13726,13529 13758,13555 13758,13555 13790,13578 13819,13599 13818,13598 13839,13611 13837,13611 13849,13615 13843,13617 13850,13608 13848,13616 13847,13600 13847,13603 13837,13581 13837,13583 13820,13556 13822,13558 13777,13505 13778,13506 13702,13443 13752,13452 13779,13466 13812,13488 13848,13513 13848,13512 13885,13536 13885,13536 13920,13556 13920,13556 13948,13570 13946,13570 13965,13573 13956,13579 13959,13570 13960,13578 13950,13560 13950,13561 13930,13536 13930,13536 13905,13509 13905,13510 13843,13452 13843,13452 13814,13429 13814,13429 13767,13397 13802,13397 13815,13400 13852,13412 13899,13431 13951,13454 13951,13454 14005,13475 14005,13475 14051,13491 14050,13491 14084,13502 14083,13501 14093,13502 14088,13503 14093,13501 14088,13510 14087,13494 14089,13498 14078,13477 14079,13478 14058,13452 14058,13454 14026,13425 14027,13427 13983,13398 13984,13398 13927,13374 13928,13374 13859,13355 13859,13355 13776,13343 13777,13343 13678,13334 13678,13334 13575,13328 13472,13321 13373,13310 13283,13291 13206,13260 13144,13211 13121,13179 13100,13133 13210,13080 13320,13039 13436,13003 13558,12974 13811,12933 14064,12908 14185,12902 14303,12901 14414,12902 14517,12907 14611,12913 14692,12922 14762,12933 14822,12944 14842,13045 14842,13044 14871,13127 14870,13126 14908,13200 14908,13199 14955,13262 14954,13261 15007,13312 15006,13312 15065,13353 15062,13351 15125,13381 15125,13381 15190,13397 15185,13397 15189,13395 15185,13406 15183,13398 15184,13401 15170,13377 15170,13377 15151,13351 15117,13296 15161,13326 15161,13324 15178,13336 15178,13336 15222,13359 15222,13359 15263,13380 15262,13380 15279,13385 15278,13385 15287,13387 15280,13390 15283,13386 15282,13397 15279,13389 15279,13391 15257,13363 15258,13363 15230,13328 15192,13274 15238,13292 15263,13302 15262,13302 15322,13320 15322,13320 15381,13331 15379,13329 15402,13329 15401,13331 15418,13326 15411,13334 15411,13328 15412,13332 15409,13324 15410,13326 15390,13304 15391,13305 15363,13283 15365,13284 15297,13250 15355,13253 15378,13258 15434,13266 15433,13265 15493,13270 15492,13270 15517,13269 15514,13270 15532,13264 15528,13278 15519,13258 15520,13261 15499,13245 15501,13246 15471,13235 15472,13235 15434,13225 15434,13225 15345,13208 15250,13189 15205,13177 15164,13161 15129,13140 15103,13114 15088,13080 15085,13039 15099,12992 15134,12927 15183,12989 15182,12987 15229,13031 15229,13031 15279,13066 15279,13065 15332,13094 15331,13094 15446,13134 15445,13134 15564,13160 15564,13160 15683,13184 15797,13211 15898,13257 15943,13289 15984,13327 16035,13376 16034,13376 16092,13417 16091,13416 16154,13448 16153,13448 16221,13474 16220,13474 16357,13507 16356,13506 16485,13521 16478,13525 16480,13522 16481,13533 16474,13525 16474,13526 16462,13514 16463,13514 16444,13498 16399,13459 16337,13393 16383,13401 16418,13411 16463,13424 16463,13424 16513,13439 16513,13439 16564,13451 16563,13451 16613,13458 16613,13457 16656,13458 16654,13459 16686,13449 16685,13449 16694,13444 16692,13447 16696,13443 16695,13454 16688,13443 16690,13444 16668,13430 16669,13431 16635,13417 16594,13398 16594,13398 16549,13381 16504,13362 16407,13316 16407,13315 16500,13331 16500,13331 16545,13339 16600,13348 16658,13358 16656,13358 16712,13366 16712,13365 16760,13370 16760,13370 16795,13370 16794,13370 16806,13370 16803,13370 16809,13367 16805,13373 16808,13363 16810,13373 16795,13359 16797,13361 16768,13344 16768,13344 16733,13327 16733,13327 16654,13293 16654,13293 16620,13280 16542,13246 16631,13255 16631,13255 16667,13258 16667,13258 16743,13258 16742,13258 16775,13258 16775,13258 16800,13255 16798,13255 16812,13250 16807,13261 16805,13254 16809,13260 16771,13238 16772,13238 16726,13218 16726,13218 16672,13201 16673,13201 16612,13189 16613,13189 16546,13180 16546,13180 16474,13177 16475,13177 16397,13179 16397,13179 16315,13189 16229,13164 16153,13129 16093,13086 16047,13040 16017,12993 16008,12945 16013,12922 16023,12902 16041,12886 16064,12872 16134,12836 16134,12836 16198,12798 16197,12799 16254,12760 16254,12760 16304,12721 16303,12721 16390,12640 16390,12640 16462,12565 16462,12566 16526,12497 16591,12442 16660,12402 16741,12386 16903,12379 16903,12379 17046,12367 17046,12367 17171,12352 17170,12353 17281,12336 17281,12336 17379,12321 17470,12307 17552,12296 17630,12293 17629,12294 17658,12290 17658,12290 17693,12284 17693,12284 17728,12277 17728,12277 17758,12270 17757,12270 17777,12260 17773,12263 17779,12252 17779,12263 17775,12257 17777,12259 17768,12252 17771,12254 17755,12247 17755,12247 17705,12228 17817,12204 17817,12204 17883,12186 17882,12186 17937,12169 17937,12169 17983,12148 17982,12148 18020,12124 18019,12125 18055,12093 18054,12095 18086,12055 18086,12055 18122,12006 18156,11979 18182,11959 18182,11959 18202,11941 18201,11942 18216,11926 18214,11929 18231,11890 18231,11893 18234,11865 18233,11865 18234,11828 18235,11831 18226,11795 18227,11798 18200,11754 18201,11755 18158,11705 18158,11706 18100,11649 18101,11649 18030,11586 18030,11586 17949,11521 17949,11521 17859,11453 17859,11453 17763,11383 17763,11383 17558,11243 17559,11243 17352,11111 17352,11112 17253,11052 17253,11052 17159,10996 17159,10996 17073,10949 17073,10949 16991,10903 17000,10774 17000,10775 16992,10659 16993,10661 16971,10553 16971,10555 16936,10459 16937,10460 16894,10376 16894,10377 16844,10306 16845,10306 16792,10248 16793,10249 16739,10208 16739,10209 16686,10185 16689,10185 16639,10178 16641,10178 16599,10190 16602,10189 16569,10222 16571,10219 16549,10274 16549,10271 16542,10349 16542,10348 16551,10451 16551,10449 16586,10602 16545,10566 Z"/></g><g style="stroke:none;fill:rgb(255,245,238)"><path d="M 16569,10578 C 16588,10653 16615,10737 16661,10810 Z"/></g><g style="stroke:rgb(255,102,0);fill:rgb(255,102,0)"><path d="M 16576,10575 L 16576,10575 16613,10692 16613,10691 16638,10750 16637,10749 16668,10806 16668,10806 C 16671,10810 16669,10817 16666,10818 16662,10822 16658,10820 16655,10817 L 16655,10817 16624,10758 16599,10698 16562,10581 16562,10581 C 16560,10577 16563,10571 16567,10570 16571,10568 16574,10571 16576,10575 Z"/></g><g style="stroke:none;fill:rgb(255,245,238)"><path d="M 15906,10954 C 15906,11025 15906,11064 15983,11134 Z"/></g><g style="stroke:rgb(255,102,0);fill:rgb(255,102,0)"><path d="M 15913,10954 L 15913,10954 15914,11002 15914,11001 15923,11042 15922,11039 15945,11082 15944,11081 15963,11103 15963,11102 15989,11127 15989,11127 C 15992,11130 15992,11135 15990,11140 15987,11143 15982,11143 15978,11141 L 15978,11141 15953,11115 15933,11092 15909,11048 15899,11004 15898,10955 15898,10955 C 15898,10949 15902,10946 15906,10945 15911,10945 15913,10949 15913,10954 Z"/></g><g style="stroke:none;fill:rgb(255,245,238)"><path d="M 15135,12945 C 15039,12789 15047,12758 15011,12622 Z"/></g><g style="stroke:rgb(255,102,0);fill:rgb(255,102,0)"><path d="M 15129,12951 L 15129,12951 15097,12898 15074,12852 15056,12815 15043,12779 15026,12712 15017,12672 15017,12672 15005,12626 15005,12626 C 15004,12620 15006,12615 15010,12615 15013,12613 15018,12615 15019,12620 L 15019,12620 15031,12666 15040,12706 15040,12706 15058,12774 15058,12773 15070,12807 15069,12807 15087,12844 15087,12843 15110,12888 15110,12888 15142,12940 15142,12940 C 15145,12944 15143,12949 15140,12953 15136,12956 15131,12955 15129,12951 Z"/></g><g style="stroke:none;fill:rgb(255,245,238)"><path d="M 12605,13052 C 12621,12878 12613,12867 12636,12712 Z"/></g><g style="stroke:rgb(255,102,0);fill:rgb(255,102,0)"><path d="M 12597,13052 L 12597,13052 12603,12994 12603,12994 12605,12947 12609,12909 12609,12909 12610,12875 12617,12806 12622,12763 12630,12711 12630,12711 C 12630,12706 12633,12703 12638,12704 12642,12704 12645,12708 12644,12714 L 12644,12714 12636,12767 12636,12767 12632,12808 12632,12807 12626,12877 12626,12877 12624,12910 12621,12948 12621,12948 12618,12995 12613,13053 12613,13053 C 12613,13059 12609,13063 12605,13061 12601,13061 12597,13057 12597,13052 Z"/></g><g style="stroke:none;fill:rgb(255,245,238)"><path d="M 17148,11544 C 17139,11603 17200,11661 17270,11675 17339,11690 17401,11661 17409,11603 17418,11544 17356,11486 17287,11472 17217,11457 17156,11486 17148,11544 Z"/></g><g style="stroke:rgb(255,102,0);fill:rgb(255,102,0)"><path d="M 17155,11549 L 17155,11544 17155,11566 17155,11563 17161,11585 17161,11582 17186,11622 17184,11620 17225,11651 17223,11650 17272,11667 17270,11666 17321,11670 17319,11671 17361,11659 17358,11660 17390,11634 17387,11637 17402,11600 17402,11603 17402,11581 17402,11585 17396,11563 17397,11566 17371,11527 17372,11529 17332,11497 17334,11499 17285,11480 17287,11480 17236,11477 17239,11477 17196,11489 17199,11488 17168,11514 17171,11511 17155,11549 Z M 17157,11500 L 17191,11473 17236,11459 17289,11464 17340,11481 17382,11515 17411,11557 17417,11580 17417,11605 17401,11647 17366,11675 17321,11689 17269,11685 17217,11666 17175,11633 17147,11592 17140,11568 17140,11543 17157,11500 Z"/></g></g></g></g></svg>